<svg width="241" height="241" viewBox="0 0 241 241" fill="none" xmlns="http://www.w3.org/2000/svg">
<path d="M125.803 55.1965C122.874 52.2676 118.126 52.2676 115.197 55.1965L100.197 70.1965C98.8534 71.5398 98.0699 73.3428 98.0045 75.2414L93.0045 220.241C92.9344 222.274 93.6929 224.248 95.1061 225.711C96.5193 227.174 98.4661 228 100.5 228H140.5C142.534 228 144.481 227.174 145.894 225.711C147.307 224.248 148.066 222.274 147.996 220.241L142.996 75.2414C142.93 73.3428 142.147 71.5398 140.803 70.1965L125.803 55.1965Z" fill="#FF884D"/>
<path fill-rule="evenodd" clip-rule="evenodd" d="M33.0005 220.5C33.0005 216.358 36.3584 213 40.5005 213H200.5C204.643 213 208 216.358 208 220.5C208 224.642 204.643 228 200.5 228H40.5005C36.3584 228 33.0005 224.642 33.0005 220.5Z" fill="#CFD8DC"/>
<path d="M170.5 12.9998C200.608 12.9998 228 32.7911 228 60.4998C228 64.642 224.642 67.9998 220.5 67.9998H120.5C116.358 67.9998 113 64.642 113 60.4998C113 32.7911 140.392 12.9998 170.5 12.9998Z" fill="#8BC94D"/>
<path d="M70.5 13C40.3919 13 13 32.7913 13 60.5C13 64.6422 16.3579 68 20.5 68H120.5C124.642 68 128 64.6422 128 60.5C128 32.7913 100.608 13 70.5 13Z" fill="#8BC94D"/>
<path d="M53.9807 56.8938C30.9165 76.2469 22.6547 109.015 40.4655 130.241C43.128 133.414 47.8587 133.828 51.0318 131.166L127.636 66.8869C130.809 64.2244 131.223 59.4937 128.561 56.3206C110.75 35.0945 77.0448 37.5407 53.9807 56.8938Z" fill="#A2D471"/>
<path d="M187.018 56.8938C210.082 76.2469 218.344 109.015 200.533 130.241C197.871 133.414 193.14 133.828 189.967 131.166L113.362 66.8869C110.189 64.2244 109.775 59.4937 112.438 56.3206C130.249 35.0945 163.954 37.5407 187.018 56.8938Z" fill="#A2D471"/>
</svg>
