<svg width="275" height="216" viewBox="0 0 275 216" fill="none" xmlns="http://www.w3.org/2000/svg">
<path opacity="0.43" d="M18.5 119.5L8.5 45.5L65.5 77L150.5 13.5L189.5 57.5L269.5 24.5L233 117.5L207.5 147M65.5 77.5L79.5 186.5L127 208.5L189 56" stroke="#7FF9FF" stroke-width="1.5" stroke-linejoin="round"/>
<path d="M162.846 12.5546C159.643 13.5188 156.433 14.4492 153.231 15.3931C153.426 15.6359 153.622 15.8786 153.817 16.1281C154.148 16.5529 154.485 16.9709 154.809 17.3957C154.957 17.5845 155.105 17.78 155.253 17.9688C155.321 18.0564 155.388 18.1441 155.456 18.2318C155.489 18.2722 155.523 18.3194 155.557 18.3599C155.618 18.4408 155.678 18.5149 155.739 18.5958C155.739 18.5958 155.739 18.5959 155.739 18.6026C155.739 18.6026 155.752 18.6228 155.759 18.6296C155.827 18.7172 155.901 18.8116 155.968 18.8993C154.633 18.1576 153.312 17.3889 151.99 16.6203C151.693 20.3152 151.41 24.0168 151.087 27.7117C150.116 24.1787 149.199 20.6321 148.261 17.0923C147.041 18.1846 145.794 19.2566 144.553 20.3287C145.079 19.2701 145.625 18.2115 146.171 17.1664V17.1597C146.171 17.1597 146.171 17.1462 146.178 17.1462C146.178 17.1462 146.178 17.1327 146.185 17.1327C146.185 17.126 146.192 17.1125 146.198 17.1058C146.198 17.1058 146.225 17.0586 146.239 17.0316C146.245 17.0181 146.252 17.0114 146.259 16.9979C146.279 16.9574 146.299 16.917 146.32 16.8765C146.347 16.8226 146.374 16.7821 146.394 16.7349C146.441 16.6473 146.488 16.5529 146.535 16.4585C146.616 16.3034 146.697 16.1483 146.778 15.9932C143.461 15.6359 140.143 15.2853 136.826 14.9077C140.042 13.9503 143.265 13.0063 146.481 12.0624C146.454 12.0287 146.427 11.9949 146.407 11.9612C146.407 11.9612 146.394 11.941 146.387 11.9343C146.367 11.9006 146.34 11.8736 146.32 11.8466C146.313 11.8331 146.299 11.8196 146.293 11.8129C145.403 10.6666 144.519 9.52044 143.677 8.34725C145.025 9.13612 146.367 9.93172 147.702 10.7341C147.985 7.1538 148.275 3.57354 148.605 0C149.583 3.51285 150.52 7.03918 151.444 10.5655C152.469 9.69573 153.5 8.81922 154.546 7.96292C154.525 8.00337 154.505 8.05057 154.485 8.09103C153.972 9.12263 153.44 10.1475 152.907 11.1724C152.907 11.1724 152.907 11.1723 152.907 11.1791C152.907 11.1791 152.907 11.1926 152.9 11.1926C152.9 11.1926 152.9 11.2061 152.894 11.2061C152.894 11.2128 152.887 11.2263 152.88 11.233C152.88 11.233 152.853 11.287 152.84 11.3072C152.84 11.3207 152.826 11.3274 152.819 11.3409C152.799 11.3814 152.779 11.4218 152.759 11.4623C156.117 11.8264 159.481 12.1837 162.839 12.5613L162.846 12.5546Z" fill="#7FF9FF"/>
<path d="M74.842 76.7366C72.5361 77.4176 70.2235 78.0716 67.9108 78.7391C68.0524 78.9077 68.194 79.0763 68.3288 79.2516C68.5648 79.5482 68.8075 79.8382 69.0435 80.1348C69.1244 80.236 69.2053 80.3371 69.2862 80.445C69.3132 80.472 69.3334 80.5057 69.3604 80.5394C69.4076 80.6001 69.4548 80.6608 69.5088 80.7214C69.529 80.7484 69.556 80.7754 69.5762 80.8091C69.6166 80.863 69.6638 80.917 69.7042 80.9709C69.7042 80.9709 69.711 80.9844 69.7177 80.9912C69.7649 81.0518 69.8189 81.1192 69.8728 81.1799C68.9154 80.6608 67.9647 80.1281 67.014 79.5955C66.7982 82.1846 66.5825 84.7737 66.3397 87.3628C65.6453 84.8951 64.9912 82.4138 64.3237 79.9326C63.4405 80.7012 62.5437 81.4564 61.647 82.2048C62.0313 81.4631 62.4223 80.7215 62.8202 79.9865C62.8202 79.9865 62.8202 79.9798 62.8202 79.973V79.9663C62.8202 79.9663 62.8202 79.9528 62.8269 79.9461C62.8269 79.9461 62.8472 79.9124 62.8539 79.8921C62.8539 79.8854 62.8606 79.8786 62.8673 79.8719C62.8808 79.8449 62.9011 79.8179 62.9146 79.7842C62.9348 79.7505 62.9482 79.7168 62.9685 79.6831C63.0022 79.6224 63.0359 79.555 63.0696 79.4943C63.1303 79.3864 63.1843 79.2785 63.2449 79.1639C60.8581 78.9212 58.4645 78.6785 56.0776 78.4223C58.3971 77.7413 60.7165 77.0805 63.0426 76.413C63.0426 76.413 63.0426 76.413 63.0426 76.4062C63.0291 76.386 63.009 76.3658 62.9955 76.3455C62.9955 76.3455 62.982 76.3321 62.982 76.3253C62.9685 76.3051 62.9483 76.2849 62.9348 76.2646C62.9281 76.2579 62.9213 76.2512 62.9146 76.2377C62.2808 75.4421 61.6402 74.6329 61.0334 73.8171C61.9976 74.37 62.9685 74.9229 63.9327 75.4825C64.1417 72.9743 64.3575 70.4661 64.6002 67.9646C65.3014 70.4256 65.9622 72.8866 66.623 75.3611C67.3646 74.7476 68.1063 74.134 68.8614 73.5339C68.8479 73.5676 68.8278 73.5946 68.8143 73.6216C68.4569 74.3093 68.0928 74.9971 67.7287 75.6848C67.7085 75.7185 67.695 75.7522 67.6747 75.7859C67.6747 75.7859 67.6748 75.7927 67.6681 75.7994C67.6681 75.7994 67.6681 75.8062 67.6681 75.8129C67.6681 75.8129 67.6681 75.8264 67.6613 75.8331C67.6613 75.8331 67.6411 75.8668 67.6343 75.8871C67.6343 75.8938 67.6276 75.9005 67.6208 75.9073C67.6073 75.9342 67.5872 75.9612 67.5737 75.9949C69.9942 76.2444 72.4147 76.4872 74.8353 76.7434L74.842 76.7366Z" fill="#7FF9FF"/>
<path d="M88.064 186.175C85.9132 186.808 83.7555 187.422 81.6047 188.042C81.7328 188.204 81.8677 188.359 81.9958 188.521C82.2183 188.797 82.4408 189.067 82.6633 189.344C82.7375 189.438 82.8116 189.532 82.8925 189.627C82.9127 189.654 82.9397 189.681 82.9599 189.714C83.0071 189.768 83.0475 189.829 83.0947 189.883C83.0947 189.883 83.1352 189.937 83.1555 189.964C83.1959 190.011 83.2363 190.065 83.2768 190.119C83.2768 190.119 83.2835 190.132 83.2903 190.132C83.3038 190.146 83.3173 190.166 83.3308 190.186C83.3645 190.227 83.3981 190.267 83.4319 190.314C82.5351 189.836 81.6519 189.33 80.7686 188.838C80.5663 191.252 80.3708 193.665 80.1416 196.073C79.4943 193.773 78.8875 191.461 78.2671 189.148C77.4446 189.863 76.6084 190.564 75.7724 191.265C76.1297 190.571 76.4938 189.883 76.8646 189.195C76.8646 189.195 76.8646 189.188 76.8646 189.182C76.8646 189.182 76.8646 189.182 76.8646 189.175C76.8646 189.175 76.8647 189.161 76.8714 189.161C76.8714 189.161 76.8917 189.128 76.8984 189.114C76.8984 189.108 76.9051 189.101 76.9119 189.094C76.9119 189.094 76.9119 189.087 76.9119 189.081C76.9254 189.054 76.9388 189.033 76.9523 189.013C76.9725 188.979 76.9861 188.946 77.0063 188.919C77.04 188.858 77.0737 188.797 77.1007 188.743C77.1546 188.642 77.2086 188.541 77.2625 188.44C75.0375 188.211 72.8057 187.988 70.5874 187.746C72.745 187.112 74.9094 186.498 77.0737 185.871C77.0602 185.851 77.0399 185.831 77.0265 185.81C77.0265 185.81 77.0198 185.797 77.013 185.79C76.9996 185.77 76.9793 185.75 76.9658 185.73C76.9658 185.723 76.9523 185.716 76.9456 185.709C76.3522 184.968 75.7589 184.219 75.1925 183.451C76.096 183.963 76.9928 184.482 77.8895 185.001C78.0851 182.668 78.2874 180.329 78.5166 177.996C79.1706 180.288 79.7909 182.587 80.4045 184.887C81.099 184.314 81.7867 183.747 82.488 183.188C82.4745 183.215 82.461 183.242 82.4475 183.275C82.1036 183.95 81.7463 184.624 81.3822 185.285C81.3822 185.285 81.3822 185.291 81.3822 185.298V185.305C81.3822 185.305 81.3822 185.311 81.3754 185.318C81.3754 185.318 81.3552 185.352 81.3484 185.365C81.3484 185.372 81.3417 185.379 81.3349 185.386C81.3215 185.413 81.308 185.44 81.2945 185.467C83.5465 185.696 85.8053 185.925 88.0573 186.168L88.064 186.175Z" fill="#7FF9FF"/>
<path d="M17.153 44.7837C15.0426 45.4041 12.9254 46.0042 10.815 46.6177C10.9431 46.7728 11.0713 46.9278 11.1994 47.0829C11.4152 47.3526 11.6376 47.6223 11.8534 47.892C11.9276 47.9864 12.0017 48.0741 12.0759 48.1685C12.0759 48.1685 12.0759 48.1685 12.0759 48.1753C12.0961 48.2022 12.1163 48.2292 12.1365 48.2562C12.1837 48.3101 12.2242 48.364 12.2714 48.4247C12.2917 48.4517 12.3119 48.4787 12.3321 48.5056C12.3726 48.5528 12.413 48.6067 12.4535 48.6539C12.4535 48.6539 12.4602 48.6674 12.4669 48.6742C12.4804 48.6877 12.4939 48.7079 12.5074 48.7214C12.5411 48.7618 12.5749 48.8023 12.6086 48.8428C11.732 48.3708 10.8622 47.8786 9.99246 47.3931C9.79019 49.7597 9.60137 52.1331 9.37887 54.4997C8.74507 52.241 8.145 49.9688 7.53818 47.7033C6.72907 48.4045 5.91322 49.0922 5.09064 49.7799C5.42102 49.1259 5.7649 48.4854 6.11551 47.8381C6.129 47.8112 6.14919 47.7774 6.16267 47.7505C6.16267 47.7505 6.16267 47.7437 6.16267 47.737C6.16267 47.737 6.16267 47.737 6.16267 47.7302C6.16267 47.7302 6.16268 47.7167 6.16942 47.7167C6.16942 47.7167 6.18968 47.683 6.19642 47.6696C6.19642 47.6628 6.20318 47.6561 6.20992 47.6493C6.2234 47.6223 6.23685 47.5954 6.25033 47.5684C6.25033 47.5684 6.28409 47.5077 6.29757 47.474C6.33129 47.4133 6.35827 47.3594 6.39198 47.2987C6.44592 47.1976 6.49985 47.0964 6.55379 47.002C4.36922 46.7795 2.18458 46.557 0 46.3211C2.11715 45.7007 4.24783 45.0939 6.36498 44.4803C6.36498 44.4803 6.36498 44.4803 6.36498 44.4736C6.3515 44.4533 6.33797 44.4399 6.32449 44.4264C6.32449 44.4264 6.31782 44.4129 6.31107 44.4062C6.29759 44.3859 6.27731 44.3657 6.26383 44.3455C6.26383 44.3387 6.25032 44.332 6.24358 44.3253C5.66373 43.5971 5.08392 42.8621 4.52429 42.107C5.40756 42.6127 6.29753 43.1183 7.17405 43.6308C7.36284 41.3383 7.56514 39.0459 7.78765 36.7534C8.42819 38.9987 9.03501 41.2574 9.64184 43.5161C10.3228 42.9565 11.0038 42.3969 11.6848 41.844C11.6714 41.871 11.6578 41.898 11.6443 41.9249C11.3207 42.5587 10.9836 43.1858 10.6465 43.8128C10.633 43.8465 10.6128 43.8735 10.5993 43.9005C10.5993 43.9005 10.5993 43.9072 10.5993 43.914C10.5993 43.914 10.5993 43.914 10.5993 43.9207C10.5993 43.9207 10.5993 43.9342 10.5926 43.9342C10.5926 43.9342 10.5723 43.9679 10.5656 43.9814C10.5656 43.9881 10.5588 43.9949 10.5521 44.0016C10.5386 44.0286 10.5251 44.0556 10.5117 44.0825C12.7232 44.3118 14.9415 44.5343 17.153 44.7702V44.7837Z" fill="#7FF9FF"/>
<path d="M195.216 55.7943C193.665 56.2528 192.108 56.6911 190.55 57.1428C190.645 57.2574 190.739 57.3721 190.833 57.4867C190.995 57.6822 191.157 57.8845 191.312 58.08C191.366 58.1475 191.42 58.2149 191.474 58.2823C191.488 58.3025 191.508 58.3227 191.521 58.343C191.555 58.3834 191.589 58.4239 191.622 58.4643C191.636 58.4845 191.649 58.5048 191.67 58.525C191.697 58.5587 191.73 58.5992 191.757 58.6329C191.757 58.6329 191.757 58.6396 191.764 58.6464C191.771 58.6531 191.784 58.6733 191.791 58.6801C191.818 58.7138 191.838 58.7408 191.865 58.7677C191.218 58.4171 190.577 58.0598 189.944 57.7024C189.795 59.442 189.654 61.1883 189.492 62.9279C189.027 61.2692 188.588 59.5971 188.136 57.9317C187.543 58.4509 186.936 58.9566 186.336 59.4622C186.579 58.9835 186.835 58.5115 187.091 58.0328C187.105 58.0126 187.118 57.9856 187.125 57.9654C187.125 57.9654 187.125 57.9654 187.125 57.9586C187.125 57.9586 187.125 57.9587 187.125 57.9519C187.125 57.9519 187.125 57.9452 187.125 57.9384C187.125 57.9384 187.139 57.9115 187.145 57.9047C187.145 57.9047 187.145 57.8912 187.152 57.8912C187.159 57.871 187.172 57.8507 187.186 57.8305C187.186 57.8305 187.186 57.8306 187.186 57.8238C187.199 57.8036 187.206 57.7833 187.22 57.7631C187.24 57.7227 187.267 57.6755 187.287 57.635C187.327 57.5608 187.368 57.4867 187.408 57.4125C185.804 57.2439 184.192 57.0889 182.587 56.9135C184.145 56.4551 185.709 56.0101 187.273 55.565C187.26 55.5516 187.247 55.5381 187.24 55.5178C187.24 55.5178 187.233 55.5111 187.226 55.5044C187.213 55.4909 187.206 55.4774 187.193 55.4639C187.193 55.4639 187.186 55.4572 187.179 55.4504C187.179 55.4504 187.145 55.41 187.132 55.3897C186.721 54.8706 186.309 54.3514 185.912 53.8188C186.566 54.1896 187.213 54.5604 187.86 54.938C188.002 53.2524 188.143 51.5667 188.312 49.8811C188.784 51.533 189.229 53.1917 189.674 54.8571C190.173 54.4458 190.672 54.0345 191.177 53.6299C191.164 53.6502 191.157 53.6704 191.144 53.6906C190.894 54.1761 190.638 54.6616 190.375 55.147C190.375 55.147 190.375 55.147 190.375 55.1538C190.375 55.1538 190.375 55.1605 190.375 55.1673C190.375 55.1673 190.362 55.1875 190.355 55.201C190.355 55.201 190.355 55.2077 190.348 55.2145C190.335 55.2347 190.328 55.2549 190.314 55.2751C191.946 55.4437 193.571 55.6055 195.196 55.7808L195.216 55.7943Z" fill="#7FF9FF"/>
<path d="M274.953 23.7809C273.477 24.2124 272 24.6372 270.524 25.062C270.611 25.1698 270.706 25.2777 270.793 25.3923C270.948 25.5811 271.097 25.7699 271.252 25.9587C271.319 26.0464 271.387 26.1273 271.454 26.215C271.468 26.2284 271.481 26.2487 271.495 26.2622C271.515 26.2824 271.528 26.3093 271.548 26.3296C271.562 26.3498 271.575 26.3633 271.596 26.3835C271.623 26.4172 271.65 26.4509 271.677 26.4914C271.677 26.4914 271.677 26.4981 271.683 26.5049C271.69 26.5184 271.704 26.5318 271.71 26.5386C271.731 26.5656 271.758 26.5993 271.778 26.6262C271.164 26.2959 270.557 25.952 269.95 25.6149C269.809 27.2668 269.674 28.9254 269.519 30.5773C269.074 28.9996 268.656 27.4151 268.231 25.8306C267.665 26.3228 267.092 26.8015 266.519 27.2802C266.755 26.8285 266.991 26.3768 267.233 25.925C267.247 25.9048 267.253 25.8846 267.267 25.8643C267.267 25.8643 267.267 25.8643 267.267 25.8576C267.267 25.8576 267.267 25.8508 267.267 25.8441C267.267 25.8441 267.28 25.8239 267.287 25.8104C267.287 25.8104 267.287 25.7969 267.294 25.7969C267.301 25.7834 267.307 25.7699 267.321 25.7497C267.321 25.7497 267.321 25.743 267.321 25.7362C267.321 25.7362 267.348 25.689 267.355 25.6688C267.375 25.6284 267.402 25.5879 267.422 25.5474C267.462 25.48 267.496 25.4058 267.537 25.3384C266.013 25.1833 264.482 25.0283 262.958 24.8664C264.442 24.4349 265.925 24.0101 267.402 23.5854C267.388 23.5719 267.375 23.5584 267.368 23.5382C267.368 23.5382 267.368 23.5381 267.361 23.5314C267.355 23.5247 267.348 23.5112 267.341 23.5044C267.341 23.5044 267.341 23.5044 267.334 23.4977C267.334 23.4977 267.334 23.4977 267.328 23.4909C266.923 22.9785 266.519 22.4661 266.128 21.9402C266.748 22.2908 267.361 22.6482 267.975 23.0055C268.11 21.4075 268.245 19.8028 268.4 18.2048C268.845 19.7758 269.269 21.3468 269.694 22.9246C270.166 22.5335 270.645 22.1424 271.124 21.7581C271.117 21.7783 271.104 21.7986 271.097 21.8188C270.868 22.2571 270.638 22.7021 270.402 23.1336C270.389 23.1538 270.382 23.174 270.369 23.1943C270.369 23.1943 270.369 23.1943 270.369 23.201C270.369 23.201 270.369 23.2078 270.369 23.2145C270.369 23.2145 270.355 23.2347 270.348 23.2482C270.348 23.2482 270.348 23.255 270.342 23.2617C270.342 23.2617 270.328 23.2887 270.315 23.3089C270.315 23.3089 270.315 23.3156 270.315 23.3224C271.859 23.4775 273.403 23.6393 274.953 23.8011V23.7809Z" fill="#7FF9FF"/>
<path d="M155.152 32.1888C153.676 32.6203 152.199 33.0451 150.729 33.4699C150.817 33.5778 150.911 33.6856 150.999 33.8003C151.14 33.9756 151.282 34.1441 151.417 34.3194C151.43 34.3329 151.444 34.3531 151.457 34.3666C151.511 34.434 151.558 34.4947 151.612 34.5622C151.626 34.5824 151.639 34.5958 151.66 34.6161C151.693 34.6565 151.72 34.6903 151.754 34.7307C151.767 34.7509 151.781 34.7711 151.801 34.7846C151.815 34.8049 151.828 34.8251 151.848 34.8453C151.848 34.8453 151.875 34.8791 151.889 34.8925C151.889 34.8925 151.889 34.8993 151.896 34.906C151.902 34.9195 151.916 34.9263 151.923 34.9397C151.943 34.9667 151.97 35.0004 151.99 35.0274C151.376 34.697 150.77 34.3531 150.163 34.016C150.021 35.6679 149.886 37.3266 149.731 38.9785C149.286 37.4008 148.868 35.8162 148.443 34.2317C147.877 34.7239 147.304 35.2027 146.731 35.6814C146.96 35.2297 147.203 34.7779 147.445 34.3261C147.459 34.3059 147.466 34.2857 147.479 34.2655C147.479 34.2655 147.479 34.2655 147.479 34.2587C147.479 34.2587 147.479 34.252 147.479 34.2452C147.479 34.2452 147.493 34.225 147.499 34.2115C147.499 34.2115 147.499 34.2048 147.499 34.198C147.499 34.198 147.513 34.1711 147.52 34.1576C147.52 34.1576 147.52 34.1509 147.52 34.1441C147.52 34.1441 147.52 34.1441 147.52 34.1374C147.533 34.1171 147.54 34.0969 147.553 34.0767C147.574 34.0362 147.601 33.9958 147.621 33.9553C147.661 33.8879 147.695 33.8137 147.735 33.7463C146.212 33.5912 144.681 33.4361 143.157 33.2743C144.641 32.8428 146.124 32.418 147.601 31.9933C147.587 31.9798 147.574 31.9663 147.567 31.9461C147.567 31.9461 147.56 31.9393 147.553 31.9326C147.547 31.9191 147.533 31.9056 147.52 31.8921C147.52 31.8921 147.52 31.8921 147.513 31.8854C147.108 31.3729 146.704 30.8605 146.313 30.3346C146.933 30.6852 147.547 31.0426 148.16 31.3999C148.295 29.8019 148.43 28.1972 148.585 26.5992C149.03 28.1703 149.455 29.7413 149.88 31.319C150.351 30.9279 150.83 30.5368 151.309 30.1525C151.302 30.1728 151.289 30.193 151.282 30.2132C151.046 30.6785 150.803 31.1369 150.554 31.5954C150.554 31.5954 150.554 31.5954 150.554 31.6022C150.554 31.6022 150.554 31.6022 150.554 31.6089C150.554 31.6089 150.54 31.6359 150.534 31.6426C150.534 31.6426 150.534 31.6494 150.534 31.6561C150.527 31.6696 150.52 31.6831 150.513 31.6966C150.513 31.6966 150.513 31.7033 150.513 31.71C152.057 31.8651 153.608 32.027 155.152 32.1888Z" fill="#7FF9FF"/>
<path d="M24.5834 118.331C22.7967 118.857 20.9964 119.37 19.2029 119.882C19.0411 121.824 18.8792 123.759 18.7039 125.701C18.178 123.826 17.6859 121.952 17.1802 120.071C15.326 119.882 13.465 119.693 11.6108 119.498C13.4044 118.972 15.2046 118.459 16.9981 117.947C17.1599 116.046 17.315 114.144 17.5038 112.25C18.023 114.083 18.5152 115.924 19.0141 117.758C20.8751 117.947 22.7293 118.136 24.5902 118.331H24.5834Z" fill="#7FF9FF"/>
<path d="M212.221 146.319C210.832 146.731 209.443 147.122 208.054 147.526C207.926 149.03 207.804 150.534 207.663 152.037C207.258 150.587 206.874 149.124 206.483 147.675C205.04 147.526 203.604 147.385 202.167 147.23C203.556 146.825 204.952 146.427 206.348 146.023C206.469 144.546 206.597 143.076 206.739 141.6C207.143 143.022 207.528 144.445 207.905 145.874C209.348 146.023 210.784 146.164 212.227 146.319H212.221Z" fill="#7FF9FF"/>
<path d="M237.35 116.646C236.15 116.996 234.95 117.34 233.75 117.684C233.642 118.985 233.534 120.28 233.413 121.581C233.062 120.327 232.732 119.066 232.388 117.812C231.147 117.684 229.9 117.563 228.659 117.428C229.859 117.077 231.066 116.733 232.266 116.389C232.374 115.115 232.482 113.841 232.604 112.573C232.954 113.8 233.285 115.034 233.615 116.261C234.862 116.389 236.103 116.518 237.35 116.646Z" fill="#7FF9FF"/>
<path d="M133.987 207.393C132.066 207.96 130.144 208.506 128.222 209.059C128.047 211.135 127.879 213.219 127.683 215.295C127.117 213.286 126.591 211.27 126.045 209.261C124.056 209.059 122.067 208.856 120.071 208.647C121.992 208.088 123.921 207.535 125.849 206.982C126.018 204.946 126.193 202.903 126.389 200.866C126.948 202.829 127.474 204.804 128.007 206.773C130.003 206.975 131.992 207.177 133.981 207.393H133.987Z" fill="#7FF9FF"/>
<path d="M45.8829 64.2561C44.7232 64.6 43.5567 64.9304 42.397 65.2608C42.2891 66.5216 42.188 67.7757 42.0734 69.0366C41.7295 67.8229 41.4126 66.6025 41.0822 65.3821C39.8753 65.2608 38.6752 65.1394 37.4683 65.0113C38.6347 64.6742 39.7944 64.337 40.9608 64.0067C41.062 62.7728 41.1699 61.5389 41.2912 60.3118C41.6283 61.4985 41.952 62.6919 42.2689 63.8853C43.4758 64.0067 44.6827 64.128 45.8829 64.2561Z" fill="#7FF9FF"/>
</svg>
