<svg width="262" height="279" viewBox="0 0 262 279" fill="none" xmlns="http://www.w3.org/2000/svg">
<path opacity="0.43" d="M8 104L32.5 133L116.5 101L106 60L175.5 6L144 74.5L165.5 103.5L253 119.5L202 131L126.5 138L107 270.5L102.5 128.5L33 133.5L68 169" stroke="#7FF9FF" stroke-width="1.5" stroke-linejoin="round"/>
<path d="M211.324 129.928C209.112 129.645 206.901 129.369 204.689 129.099C204.716 129.045 204.75 128.998 204.777 128.944C204.777 128.944 204.79 128.924 204.79 128.917C204.79 128.917 204.79 128.91 204.797 128.904C205.188 128.216 205.572 127.528 205.95 126.834C205.963 126.807 205.984 126.773 205.997 126.746C205.256 127.312 204.527 127.885 203.792 128.465C203.206 126.065 202.612 123.658 201.985 121.271C201.695 123.692 201.433 126.112 201.176 128.533C200.259 127.973 199.336 127.413 198.405 126.861C198.978 127.67 199.572 128.459 200.172 129.247C200.172 129.247 200.219 129.308 200.239 129.335C200.239 129.342 200.253 129.349 200.253 129.355C200.273 129.376 200.286 129.402 200.307 129.423C198.048 130.023 195.782 130.609 193.53 131.223C195.836 131.52 198.142 131.803 200.448 132.093C200.333 132.295 200.226 132.491 200.111 132.686C200.091 132.72 200.071 132.754 200.05 132.787C200.044 132.801 200.03 132.821 200.023 132.834C200.023 132.834 200.023 132.848 200.017 132.855C200.017 132.855 200.017 132.855 200.017 132.861C200.017 132.861 200.01 132.875 200.003 132.882C199.605 133.583 199.207 134.291 198.823 135.006C199.706 134.298 200.59 133.59 201.459 132.861C202.053 135.275 202.633 137.689 203.253 140.089C203.543 137.588 203.799 135.086 204.069 132.585C204.979 133.124 205.883 133.664 206.806 134.183C206.752 134.115 206.698 134.048 206.651 133.981C206.611 133.927 206.57 133.873 206.53 133.819C206.51 133.792 206.483 133.758 206.462 133.731C205.963 133.077 205.465 132.423 204.952 131.776C207.204 131.176 209.456 130.589 211.701 129.982C211.573 129.969 211.452 129.949 211.324 129.935V129.928Z" fill="#7FF9FF"/>
<path d="M178.131 103.848C175.312 103.471 172.487 103.107 169.662 102.743C169.702 102.675 169.736 102.608 169.777 102.54C169.777 102.54 169.783 102.527 169.79 102.52C169.79 102.507 169.804 102.5 169.81 102.486C170.309 101.59 170.795 100.686 171.273 99.7758C171.294 99.7354 171.314 99.7017 171.334 99.6612C170.39 100.403 169.46 101.158 168.529 101.913C167.774 98.7577 167.012 95.6022 166.21 92.4602C165.846 95.6359 165.522 98.8117 165.198 101.987C164.025 101.246 162.845 100.518 161.659 99.7826C162.394 100.841 163.155 101.886 163.917 102.918C163.944 102.958 163.971 102.992 164.005 103.032C164.012 103.046 164.018 103.053 164.025 103.059C164.045 103.093 164.072 103.12 164.093 103.147C161.207 103.922 158.328 104.698 155.449 105.487C158.388 105.885 161.335 106.262 164.281 106.646C164.14 106.909 163.998 107.166 163.85 107.429C163.823 107.476 163.803 107.516 163.776 107.563C163.762 107.584 163.756 107.604 163.742 107.631C163.742 107.631 163.722 107.671 163.708 107.692C163.196 108.615 162.697 109.539 162.205 110.476C163.331 109.546 164.457 108.622 165.563 107.671C166.324 110.84 167.073 114.009 167.868 117.172C168.226 113.888 168.556 110.604 168.887 107.321C170.046 108.029 171.206 108.737 172.379 109.424C172.312 109.337 172.244 109.242 172.177 109.155C172.177 109.155 172.177 109.155 172.177 109.148C172.123 109.081 172.069 109.006 172.022 108.939C171.995 108.898 171.968 108.858 171.934 108.824C171.745 108.568 171.557 108.312 171.368 108.062C170.916 107.456 170.464 106.856 169.999 106.255C172.871 105.48 175.744 104.711 178.609 103.916C178.447 103.896 178.292 103.875 178.131 103.848Z" fill="#7FF9FF"/>
<path d="M138.289 137.102C135.929 136.799 133.563 136.509 131.203 136.212C131.237 136.159 131.264 136.105 131.297 136.051C131.297 136.051 131.311 136.03 131.311 136.017C131.311 136.017 131.318 136.003 131.318 135.997C131.736 135.269 132.147 134.527 132.545 133.792C132.558 133.758 132.578 133.731 132.592 133.698C131.803 134.304 131.021 134.918 130.239 135.531C129.612 132.963 128.978 130.4 128.31 127.838C128 130.421 127.724 133.01 127.447 135.592C126.463 134.992 125.479 134.399 124.487 133.805C125.101 134.668 125.735 135.511 126.375 136.354C126.402 136.388 126.422 136.415 126.449 136.448C126.449 136.455 126.463 136.462 126.463 136.469C126.483 136.496 126.497 136.516 126.517 136.543C124.103 137.183 121.682 137.817 119.275 138.464C121.736 138.781 124.204 139.085 126.672 139.395C126.551 139.611 126.429 139.82 126.308 140.029C126.288 140.069 126.267 140.103 126.247 140.137C126.24 140.157 126.227 140.17 126.22 140.191C126.22 140.191 126.207 140.211 126.2 140.224C126.2 140.224 126.193 140.238 126.186 140.245C125.762 140.993 125.337 141.748 124.926 142.51C125.87 141.755 126.814 141 127.744 140.224C128.378 142.8 128.998 145.382 129.659 147.951C129.969 145.281 130.245 142.604 130.529 139.934C131.5 140.507 132.471 141.081 133.448 141.64C133.394 141.566 133.334 141.492 133.28 141.424C133.232 141.371 133.192 141.31 133.145 141.249C132.585 140.514 132.032 139.786 131.459 139.065C133.866 138.424 136.273 137.797 138.674 137.15C138.539 137.129 138.404 137.116 138.276 137.096L138.289 137.102Z" fill="#7FF9FF"/>
<path d="M15.1639 103.592C13.276 103.349 11.3949 103.12 9.50696 102.884C9.53393 102.837 9.55416 102.796 9.58113 102.756C9.58113 102.756 9.59461 102.729 9.60135 102.716C9.93174 102.129 10.2621 101.542 10.579 100.956C10.5925 100.929 10.606 100.909 10.6195 100.882C9.98567 101.367 9.36537 101.852 8.73831 102.345C8.23937 100.295 7.73367 98.2452 7.20101 96.209C6.95154 98.2722 6.72904 100.335 6.51328 102.399C5.73115 101.92 4.94227 101.448 4.1534 100.976C4.63886 101.664 5.15129 102.338 5.66372 103.012C5.66372 103.012 5.70418 103.059 5.71766 103.086C5.71766 103.093 5.7244 103.1 5.73114 103.107C5.74463 103.127 5.75812 103.147 5.77835 103.167C3.84998 103.68 1.92162 104.179 0 104.698C1.96882 104.954 3.93089 105.19 5.89971 105.439C5.80531 105.608 5.71092 105.777 5.60978 105.945C5.60978 105.945 5.57607 106.006 5.56258 106.033C5.55584 106.046 5.5491 106.06 5.53561 106.073C5.53561 106.073 5.52213 106.1 5.51538 106.114C5.17151 106.714 4.83439 107.314 4.51075 107.921C5.26591 107.314 6.02108 106.714 6.76275 106.094C7.26844 108.15 7.76064 110.206 8.2933 112.256C8.53603 110.126 8.75854 107.995 8.98778 105.858C9.76317 106.316 10.5386 106.775 11.3207 107.22C11.2735 107.159 11.233 107.105 11.1858 107.044C11.1521 106.997 11.1184 106.95 11.078 106.909C10.633 106.323 10.188 105.743 9.7362 105.17C11.6578 104.657 13.5727 104.158 15.4943 103.639C15.3864 103.626 15.2786 103.612 15.1774 103.599L15.1639 103.592Z" fill="#7FF9FF"/>
<path d="M116.059 267.82C113.598 267.408 111.137 267.004 108.676 266.599C108.71 266.545 108.744 266.485 108.784 266.431C108.784 266.431 108.798 266.41 108.804 266.397C108.804 266.397 108.811 266.383 108.818 266.377C109.283 265.628 109.748 264.873 110.193 264.118C110.213 264.084 110.227 264.057 110.247 264.024C109.398 264.624 108.548 265.237 107.705 265.851C107.152 263.14 106.599 260.43 106.006 257.726C105.575 260.416 105.177 263.113 104.786 265.81C103.781 265.143 102.77 264.482 101.765 263.821C102.372 264.752 102.999 265.662 103.639 266.566C103.666 266.599 103.687 266.633 103.714 266.667C103.714 266.673 103.727 266.68 103.727 266.687C103.727 266.687 103.761 266.741 103.781 266.768C101.226 267.334 98.6703 267.901 96.1216 268.48C98.6837 268.919 101.253 269.33 103.822 269.755C103.707 269.937 103.599 270.119 103.484 270.294C103.464 270.328 103.444 270.362 103.417 270.395C103.397 270.436 103.37 270.469 103.35 270.51C103.336 270.53 103.329 270.544 103.316 270.564C103.316 270.564 103.302 270.584 103.296 270.598C103.296 270.598 103.289 270.611 103.282 270.618C102.803 271.386 102.331 272.162 101.866 272.937C102.884 272.182 103.909 271.434 104.914 270.658C105.473 273.382 106.013 276.106 106.599 278.823C107.031 276.039 107.429 273.254 107.84 270.469C108.831 271.11 109.822 271.751 110.827 272.378C110.773 272.297 110.712 272.222 110.658 272.142C110.618 272.081 110.571 272.02 110.53 271.953C109.977 271.164 109.425 270.375 108.858 269.6C111.4 269.033 113.942 268.474 116.484 267.894C116.342 267.867 116.208 267.847 116.066 267.82H116.059Z" fill="#7FF9FF"/>
<path d="M261.407 118.85C258.98 118.547 256.553 118.257 254.125 117.96C253.518 115.513 252.912 113.065 252.264 110.625C251.974 113.133 251.711 115.648 251.455 118.163C249.062 118.803 246.675 119.437 244.281 120.084C246.736 120.394 249.19 120.684 251.644 120.981C252.264 123.483 252.878 125.984 253.525 128.472C253.808 125.91 254.065 123.341 254.334 120.779C256.721 120.138 259.108 119.504 261.495 118.857C261.468 118.857 261.441 118.85 261.414 118.844L261.407 118.85Z" fill="#7FF9FF"/>
<path d="M148.935 73.5137C147.607 73.3519 146.272 73.1968 144.944 73.0485C144.593 71.6528 144.243 70.2638 143.865 68.8749C143.703 70.3043 143.562 71.7337 143.42 73.1699C142.058 73.5407 140.703 73.9048 139.341 74.2824C140.737 74.4509 142.139 74.6128 143.535 74.7746C143.892 76.1973 144.249 77.6199 144.627 79.0359C144.782 77.5795 144.924 76.1164 145.065 74.6532C146.42 74.2824 147.782 73.9183 149.138 73.5407C149.07 73.5339 149.003 73.5272 148.935 73.5137Z" fill="#7FF9FF"/>
<path d="M100.936 60.7299C102.311 60.831 103.687 60.9254 105.069 61.0198C105.507 62.4627 105.939 63.9124 106.397 65.3485C106.485 63.8382 106.559 62.3279 106.633 60.8243C108.008 60.3793 109.391 59.9343 110.766 59.4825C109.317 59.3747 107.874 59.2803 106.424 59.1791C105.992 57.7632 105.561 56.3473 105.109 54.9448C105.015 56.4214 104.941 57.9048 104.866 59.3814C103.484 59.8264 102.102 60.2714 100.727 60.7232C100.794 60.7232 100.861 60.7366 100.929 60.7366L100.936 60.7299Z" fill="#7FF9FF"/>
<path d="M180.693 5.4884C179.176 5.25916 177.659 5.03665 176.142 4.81415C175.798 3.2364 175.447 1.66539 175.076 0.0943846C175.076 0.0943846 175.063 0.0337126 175.056 0C174.82 1.63169 174.611 3.26337 174.402 4.89506C172.831 5.27264 171.267 5.64347 169.696 6.0278C171.287 6.27053 172.878 6.50653 174.476 6.73577C174.84 8.37421 175.191 10.0126 175.575 11.6443C175.805 9.97892 176.014 8.31352 176.229 6.64812C177.794 6.27053 179.365 5.8997 180.922 5.51538C180.848 5.50189 180.767 5.49514 180.693 5.48165V5.4884Z" fill="#7FF9FF"/>
<path d="M111.494 129.193C109.162 128.843 106.822 128.499 104.489 128.155C103.943 125.681 103.397 123.213 102.817 120.752C102.459 123.26 102.129 125.775 101.805 128.29C99.3916 128.87 96.9778 129.443 94.564 130.03C97.0182 130.4 99.4658 130.764 101.92 131.122C102.48 133.644 103.026 136.165 103.612 138.68C103.963 136.118 104.293 133.556 104.624 130.987C107.031 130.407 109.445 129.834 111.852 129.247C111.73 129.227 111.616 129.214 111.494 129.193Z" fill="#7FF9FF"/>
<path d="M39.3426 131.789C37.5356 131.52 35.7354 131.25 33.9284 130.987C33.5103 129.079 33.0855 127.164 32.6338 125.263C32.3574 127.204 32.1011 129.146 31.8517 131.088C29.984 131.533 28.1163 131.978 26.2554 132.437C28.15 132.727 30.0447 133.003 31.9393 133.279C32.3708 135.228 32.7889 137.183 33.2474 139.125C33.5238 137.143 33.7733 135.161 34.0295 133.178C35.8904 132.733 37.7581 132.288 39.6191 131.83C39.5247 131.816 39.437 131.803 39.3426 131.789Z" fill="#7FF9FF"/>
<path d="M117.367 105.891C117.455 104.785 117.542 103.686 117.63 102.581C119.484 102.041 121.338 101.502 123.186 100.949C121.264 100.753 119.343 100.565 117.421 100.383C116.902 98.4812 116.383 96.5798 115.837 94.6919C115.654 96.654 115.499 98.6228 115.344 100.592C113.49 101.131 111.636 101.677 109.782 102.223C111.703 102.419 113.625 102.601 115.547 102.79C116.079 104.732 116.598 106.673 117.151 108.602C117.232 107.698 117.306 106.795 117.381 105.891H117.367Z" fill="#7FF9FF"/>
<path d="M73.662 168.395C72.0573 168.266 70.4526 168.145 68.8478 168.03C68.3691 166.412 67.8837 164.787 67.378 163.176C67.378 163.176 67.3577 163.115 67.351 163.081C67.2296 164.801 67.1285 166.527 67.0341 168.253C65.4226 168.765 63.8112 169.271 62.1997 169.79C63.8853 169.925 65.5642 170.046 67.2499 170.175C67.7555 171.86 68.2478 173.553 68.7669 175.231C68.8815 173.472 68.9759 171.712 69.0771 169.959C70.6885 169.446 72.3 168.941 73.9047 168.422C73.8238 168.422 73.7429 168.408 73.662 168.401V168.395Z" fill="#7FF9FF"/>
</svg>
