<svg width="260" height="142" viewBox="0 0 260 142" fill="none" xmlns="http://www.w3.org/2000/svg">
<path opacity="0.43" d="M41 77L42.5 34L103 5.5L185.5 36L226.5 58.5L256.5 104.5L253.5 137L185.5 115.5L117 88.5L51 86.5L41 77Z" stroke="#7FF9FF" stroke-width="1.5" stroke-linejoin="round"/>
<path d="M52.8953 36.3153C50.3062 36.322 47.7238 36.3085 45.1346 36.3018C45.2223 36.5243 45.3167 36.7468 45.4043 36.976C45.5594 37.3603 45.7145 37.7447 45.8629 38.1357C45.9168 38.2706 45.9707 38.4122 46.0247 38.547C46.0381 38.5807 46.0516 38.6212 46.0651 38.6549C46.0988 38.7358 46.1258 38.81 46.1595 38.8909C46.173 38.9246 46.1865 38.9651 46.2 38.9988C46.2269 39.0729 46.2539 39.1404 46.2809 39.2145C46.2809 39.2145 46.2809 39.2145 46.2809 39.2213C46.2809 39.2213 46.2808 39.2348 46.2876 39.2483C46.3213 39.3292 46.355 39.4168 46.3887 39.4977C45.5594 38.6549 44.7503 37.7919 43.9412 36.9288C42.9096 39.6056 41.8847 42.2891 40.8262 44.9592C40.8801 42.1273 40.9812 39.2955 41.0689 36.4568C39.9227 37.003 38.763 37.5222 37.6033 38.0413C38.2303 37.3671 38.8641 36.7063 39.5046 36.0523C39.5046 36.0523 39.5114 36.0456 39.5181 36.0388C39.5181 36.0388 39.5181 36.0388 39.5249 36.0321L39.5384 36.0186C39.5384 36.0186 39.5653 35.9849 39.5855 35.9714C39.5923 35.9714 39.599 35.9579 39.6058 35.9512C39.6327 35.9242 39.653 35.904 39.6799 35.877C39.6799 35.877 39.7406 35.8163 39.7676 35.7893C39.8215 35.7354 39.8755 35.6747 39.9361 35.6208C40.0305 35.5264 40.1249 35.4252 40.2193 35.3308C37.8392 34.333 35.4524 33.3418 33.0723 32.3304C35.6681 32.3304 38.264 32.3372 40.8666 32.3507C40.8531 32.3169 40.8464 32.29 40.8329 32.263C40.8329 32.263 40.8262 32.2495 40.8262 32.236C40.8127 32.2091 40.8059 32.1821 40.7925 32.1551C40.7925 32.1551 40.7925 32.1416 40.7857 32.1281C40.7857 32.1281 40.7857 32.1281 40.7857 32.1214C40.3812 31.0763 39.9766 30.0312 39.6058 28.9726C40.4284 29.8559 41.251 30.7392 42.0668 31.6292C43.0647 29.0333 44.0693 26.4442 45.1009 23.8618C45.0537 26.6869 44.9661 29.5053 44.8784 32.3304C45.8359 31.9124 46.7866 31.4876 47.7507 31.0831C47.7238 31.11 47.6968 31.137 47.6765 31.164C47.0697 31.818 46.4494 32.4653 45.8291 33.0991C45.8291 33.0991 45.8224 33.1058 45.8156 33.1058C45.8156 33.1058 45.8089 33.1126 45.8089 33.1193L45.7954 33.1328C45.7954 33.1328 45.7617 33.1665 45.7482 33.18C45.7415 33.1867 45.7347 33.1935 45.728 33.2002C45.701 33.2272 45.6808 33.2541 45.6538 33.2744C48.0676 34.2858 50.4815 35.2904 52.8885 36.3085L52.8953 36.3153Z" fill="#7FF9FF"/>
<path d="M123.476 90.1745C121.642 90.0868 119.815 89.9789 117.981 89.8845C118.041 90.0464 118.102 90.2014 118.156 90.3565C118.257 90.6262 118.352 90.8959 118.446 91.1724C118.48 91.2668 118.513 91.3611 118.547 91.4555C118.574 91.5432 118.608 91.6241 118.635 91.7118C118.642 91.7387 118.655 91.7657 118.662 91.7927C118.682 91.8399 118.695 91.8938 118.716 91.941C118.716 91.941 118.716 91.9545 118.716 91.9612C118.716 91.9747 118.729 91.9949 118.736 92.0084C118.749 92.0489 118.763 92.0893 118.783 92.1298C118.223 91.5162 117.671 90.8959 117.118 90.2689C116.309 92.0758 115.513 93.8896 114.69 95.6966C114.805 93.7413 114.96 91.7927 115.095 89.8441C114.266 90.1745 113.43 90.4914 112.6 90.8083C113.059 90.37 113.531 89.9317 113.996 89.507C113.996 89.507 113.996 89.507 114.003 89.507C114.003 89.507 114.003 89.5069 114.009 89.5002C114.009 89.5002 114.016 89.4935 114.023 89.4935C114.023 89.4935 114.043 89.4732 114.057 89.4598C114.057 89.4598 114.063 89.453 114.07 89.4463C114.07 89.4463 114.104 89.4126 114.124 89.3923C114.124 89.3923 114.164 89.3519 114.185 89.3316C114.225 89.2912 114.266 89.2575 114.306 89.217C114.373 89.1496 114.448 89.0889 114.515 89.0282C112.856 88.2528 111.198 87.4842 109.539 86.7021C111.38 86.7965 113.214 86.8976 115.054 86.9987C115.048 86.9785 115.041 86.9583 115.034 86.9381C115.034 86.9381 115.034 86.9246 115.034 86.9178C115.034 86.8976 115.021 86.8774 115.014 86.8571C115.014 86.8571 115.014 86.8571 115.014 86.8504C115.014 86.8504 115.014 86.8437 115.014 86.8369C114.758 86.102 114.502 85.367 114.266 84.6186C114.825 85.2592 115.385 85.8997 115.938 86.5402C116.713 84.7872 117.495 83.0341 118.298 81.2946C118.19 83.2364 118.048 85.185 117.907 87.1268C118.594 86.8706 119.282 86.6144 119.977 86.3717C119.956 86.3919 119.943 86.4054 119.923 86.4256C119.471 86.8571 119.019 87.2752 118.561 87.6932C118.561 87.6932 118.561 87.6932 118.554 87.6932C118.554 87.6932 118.547 87.7 118.54 87.7C118.54 87.7 118.52 87.7202 118.507 87.7337C118.507 87.7337 118.5 87.7404 118.493 87.7472C118.473 87.7674 118.459 87.7809 118.439 87.7943C120.118 88.5765 121.804 89.3586 123.476 90.1542V90.1745Z" fill="#7FF9FF"/>
<path d="M108.81 7.2145C107.32 7.14033 105.83 7.05942 104.34 6.97851C104.387 7.10662 104.435 7.23472 104.482 7.36283C104.563 7.58534 104.644 7.8011 104.718 8.0236C104.745 8.10451 104.772 8.17868 104.799 8.25285C104.805 8.27307 104.812 8.30004 104.819 8.32027C104.826 8.3405 104.832 8.35398 104.839 8.37421C104.846 8.40118 104.859 8.42815 104.866 8.45512C104.873 8.47535 104.88 8.49558 104.886 8.5158C104.9 8.55626 104.913 8.59671 104.927 8.63717C104.927 8.63717 104.927 8.64391 104.927 8.65065C104.947 8.69785 104.961 8.74505 104.981 8.79225C104.522 8.2933 104.077 7.78761 103.625 7.28192C102.971 8.75854 102.317 10.2284 101.65 11.6983C101.744 10.107 101.866 8.52255 101.98 6.93131C101.306 7.20101 100.625 7.45723 99.9508 7.72019C100.328 7.36283 100.706 7.00548 101.09 6.66161C101.09 6.66161 101.09 6.66161 101.097 6.65487C101.097 6.65487 101.117 6.63464 101.124 6.6279C101.124 6.6279 101.131 6.62116 101.137 6.61441C101.151 6.60093 101.164 6.58744 101.185 6.57396C101.185 6.57396 101.218 6.54025 101.239 6.52676C101.259 6.51328 101.272 6.49305 101.293 6.47956C101.306 6.46608 101.326 6.45259 101.34 6.43911C101.394 6.38517 101.454 6.33797 101.508 6.28403C100.16 5.65023 98.8046 5.02318 97.4561 4.38938C98.9529 4.46355 100.45 4.5512 101.947 4.63211C101.947 4.63211 101.947 4.63211 101.947 4.62537C101.947 4.61188 101.94 4.5984 101.933 4.58491C101.933 4.58491 101.933 4.57817 101.933 4.57143C101.933 4.55794 101.926 4.5512 101.92 4.53772C101.92 4.53772 101.92 4.53097 101.92 4.52423C101.92 4.52423 101.92 4.51749 101.92 4.51075C101.711 3.91066 101.502 3.31058 101.313 2.70375C101.765 3.22293 102.223 3.7421 102.675 4.26802C103.309 2.8386 103.942 1.41593 104.596 0C104.509 1.58449 104.394 3.16224 104.279 4.74674C104.839 4.53772 105.399 4.3287 105.965 4.13317C105.952 4.14665 105.938 4.16014 105.918 4.17362C105.554 4.52423 105.183 4.8681 104.812 5.20523C104.812 5.20523 104.812 5.20523 104.805 5.21197C104.805 5.21197 104.785 5.22545 104.778 5.23894C104.778 5.23894 104.772 5.24568 104.765 5.24568C104.751 5.25242 104.745 5.26591 104.738 5.27265C104.738 5.27265 104.738 5.27265 104.731 5.27939C106.1 5.91993 107.469 6.55373 108.831 7.20101L108.81 7.2145Z" fill="#7FF9FF"/>
<path d="M46.4553 77.93C45.0259 77.8761 43.5965 77.8154 42.1603 77.7547C42.2075 77.8761 42.2547 78.0042 42.3019 78.1256C42.3828 78.3413 42.457 78.5503 42.5379 78.7661C42.5649 78.8403 42.5918 78.9144 42.6188 78.9886C42.6255 79.0088 42.6323 79.0358 42.6458 79.056C42.6458 79.0762 42.6593 79.0897 42.666 79.11C42.6795 79.1369 42.6863 79.1639 42.693 79.1909C42.693 79.1909 42.7065 79.2313 42.7132 79.2583C42.7199 79.2785 42.7267 79.2988 42.7334 79.319C42.7334 79.3392 42.7469 79.3527 42.7537 79.3729C42.7537 79.3729 42.7537 79.3797 42.7537 79.3864C42.7537 79.3999 42.7604 79.4134 42.7672 79.4269C42.7806 79.4606 42.7941 79.4943 42.8009 79.5213C42.3559 79.0425 41.9243 78.5571 41.4928 78.0649C40.8725 79.5078 40.259 80.9439 39.6252 82.3801C39.7061 80.836 39.8139 79.292 39.9083 77.7412C39.261 78.0109 38.6138 78.2739 37.9665 78.5301C38.3104 78.193 38.6542 77.8626 39.0048 77.5322C39.0183 77.5187 39.0385 77.4985 39.052 77.485C39.052 77.485 39.052 77.485 39.0588 77.4783C39.0588 77.4783 39.079 77.4648 39.0857 77.4513C39.0857 77.4513 39.0925 77.4446 39.0992 77.4378C39.0992 77.4378 39.1194 77.4176 39.1329 77.4041C39.1329 77.4041 39.1329 77.4041 39.1397 77.3974C39.1397 77.3974 39.1734 77.3636 39.1869 77.3502C39.2004 77.3367 39.2206 77.3164 39.2408 77.303C39.2543 77.2895 39.2678 77.276 39.2813 77.2625C39.3352 77.2086 39.3892 77.1614 39.4431 77.1074C38.1418 76.5073 36.8405 75.914 35.5459 75.3139C36.9821 75.3679 38.4182 75.4353 39.8544 75.496C39.8544 75.4825 39.8409 75.4623 39.8409 75.4488C39.8409 75.4488 39.8409 75.442 39.8409 75.4353C39.8409 75.4218 39.8274 75.4083 39.8274 75.3881C39.8274 75.3881 39.8274 75.3813 39.8274 75.3746C39.8274 75.3746 39.8139 75.3341 39.8072 75.3139C39.6116 74.7543 39.4094 74.1947 39.2341 73.6283C39.6723 74.1272 40.1174 74.6329 40.5489 75.1319C41.149 73.7362 41.749 72.3472 42.3626 70.9583C42.2885 72.4955 42.1873 74.0396 42.0929 75.5769C42.6256 75.3679 43.165 75.1588 43.7044 74.9566C43.6909 74.9701 43.6774 74.9835 43.6639 74.997C43.3335 75.3274 42.9964 75.651 42.6525 75.9679C42.6391 75.9814 42.6188 76.0017 42.6053 76.0151C42.6053 76.0151 42.6053 76.0151 42.5986 76.0219C42.5986 76.0219 42.5784 76.0354 42.5716 76.0489C42.5716 76.0489 42.5649 76.0489 42.5649 76.0556C42.5514 76.0691 42.5447 76.0758 42.5312 76.0893C42.5312 76.0893 42.5312 76.0893 42.5244 76.0961C43.8392 76.7029 45.1607 77.303 46.4755 77.9098L46.4553 77.93Z" fill="#7FF9FF"/>
<path d="M258.583 137.487C257.153 137.419 255.724 137.338 254.301 137.257C253.694 138.619 253.094 139.988 252.474 141.343C252.562 139.853 252.676 138.37 252.784 136.887C251.49 136.28 250.188 135.68 248.9 135.073C250.33 135.147 251.759 135.228 253.189 135.302C253.782 133.967 254.375 132.632 254.989 131.304C254.908 132.76 254.8 134.217 254.692 135.673C255.987 136.28 257.288 136.88 258.583 137.493V137.487Z" fill="#7FF9FF"/>
<path d="M55.9498 87.6729C54.4597 87.5988 52.9696 87.5178 51.4795 87.4369C50.8457 88.8596 50.2187 90.2823 49.5714 91.6982C49.6658 90.1474 49.7872 88.5966 49.895 87.0459C48.5398 86.4188 47.1913 85.785 45.8428 85.1512C47.3329 85.2254 48.8297 85.3063 50.3198 85.394C50.9401 83.9983 51.5604 82.6093 52.1942 81.2203C52.1066 82.7374 51.9987 84.2612 51.8841 85.7783C53.2393 86.4053 54.5946 87.0391 55.9431 87.6729H55.9498Z" fill="#7FF9FF"/>
<path d="M188.79 116.126C187.745 116.072 186.7 116.019 185.655 115.958C185.21 116.956 184.772 117.954 184.32 118.952C184.388 117.859 184.469 116.774 184.549 115.688C183.599 115.243 182.648 114.805 181.704 114.36C182.749 114.414 183.801 114.468 184.846 114.528C185.278 113.551 185.716 112.573 186.168 111.595C186.107 112.661 186.026 113.733 185.952 114.798C186.903 115.243 187.853 115.681 188.804 116.133L188.79 116.126Z" fill="#7FF9FF"/>
<path d="M259.762 104.954C258.717 104.9 257.672 104.846 256.627 104.785C256.182 105.783 255.744 106.781 255.292 107.779C255.359 106.687 255.44 105.601 255.521 104.516C254.57 104.071 253.62 103.633 252.676 103.188C253.721 103.241 254.773 103.295 255.818 103.356C256.249 102.378 256.688 101.401 257.139 100.423C257.079 101.488 256.998 102.56 256.924 103.626C257.874 104.071 258.825 104.509 259.776 104.961L259.762 104.954Z" fill="#7FF9FF"/>
<path d="M189.141 36.1938C188.17 36.1467 187.206 36.0927 186.235 36.0388C185.824 36.9625 185.413 37.8862 184.995 38.8099C185.055 37.7986 185.136 36.7939 185.204 35.7893C184.327 35.378 183.444 34.9735 182.567 34.5554C183.538 34.6026 184.509 34.6566 185.473 34.7105C185.878 33.807 186.276 32.8968 186.694 32C186.64 32.9912 186.566 33.9756 186.491 34.96C187.375 35.3713 188.251 35.7758 189.128 36.1938H189.141Z" fill="#7FF9FF"/>
<path d="M9.57439 121.568C8.1652 121.5 6.74925 121.419 5.34007 121.338C4.73998 122.687 4.14664 124.035 3.53308 125.377C3.62073 123.907 3.73537 122.437 3.84325 120.974C2.56217 120.381 1.28108 119.781 0 119.181C1.41593 119.255 2.8251 119.329 4.24103 119.41C4.82763 118.089 5.41424 116.767 6.02107 115.459C5.94016 116.902 5.83228 118.338 5.73114 119.774C7.01222 120.368 8.29331 120.968 9.57439 121.568Z" fill="#7FF9FF"/>
<path d="M229.758 59.0713C228.713 59.0173 227.668 58.9634 226.623 58.9027C226.178 59.9006 225.74 60.8985 225.288 61.8964C225.355 60.8041 225.436 59.7185 225.517 58.633C224.567 58.188 223.616 57.7497 222.672 57.3047C223.717 57.3587 224.769 57.4126 225.814 57.4733C226.245 56.4956 226.684 55.5179 227.135 54.5403C227.075 55.6056 226.994 56.6777 226.92 57.743C227.87 58.188 228.821 58.6262 229.772 59.078L229.758 59.0713Z" fill="#7FF9FF"/>
</svg>
