<svg width="385" height="155" viewBox="0 0 385 155" fill="none" xmlns="http://www.w3.org/2000/svg">
<path opacity="0.43" d="M162.5 50.4999L30.0005 103.5L149.5 107.5L357 73.5L370.5 57L162.5 50.4999Z" stroke="#7FF9FF" stroke-width="1.5" stroke-linejoin="round"/>
<path d="M383.226 58.8301C379.864 59.1086 376.506 59.3537 373.14 59.6113C373.283 59.8934 373.425 60.1756 373.567 60.4577C373.808 60.9419 374.048 61.426 374.28 61.9161C374.382 62.139 374.492 62.356 374.594 62.5789C374.643 62.6799 374.692 62.781 374.741 62.882C374.762 62.9321 374.789 62.983 374.811 63.0264C374.855 63.1132 374.898 63.2067 374.942 63.2935C374.942 63.2935 374.942 63.2935 374.941 63.3002C374.941 63.3002 374.952 63.3219 374.958 63.3294C375.007 63.4304 375.062 63.5389 375.111 63.64C373.949 62.6298 372.805 61.5946 371.667 60.5601C370.601 64.146 369.54 67.7395 368.448 71.3154C368.229 67.6281 368.066 63.9339 367.888 60.2448C366.45 61.0689 365.002 61.8646 363.547 62.6595C364.292 61.7243 365.043 60.7965 365.807 59.877C365.807 59.877 365.807 59.877 365.808 59.8703C365.808 59.8703 365.816 59.8578 365.823 59.8586C365.823 59.8586 365.823 59.8519 365.831 59.846C365.832 59.8393 365.847 59.8275 365.848 59.8208C365.848 59.8208 365.887 59.7781 365.903 59.7529C365.904 59.7462 365.919 59.7344 365.927 59.7286C365.958 59.6916 365.982 59.6606 366.014 59.6237C366.053 59.5809 366.086 59.5373 366.117 59.5004C366.181 59.4198 366.252 59.3401 366.316 59.2596C366.428 59.1237 366.539 58.9878 366.651 58.8519C363.451 57.7984 360.249 56.7583 357.057 55.6922C360.431 55.422 363.81 55.1727 367.183 54.9092C367.167 54.8733 367.144 54.8366 367.129 54.794C367.129 54.794 367.118 54.7723 367.113 54.7581C367.097 54.7222 367.08 54.693 367.064 54.6571C367.064 54.6571 367.054 54.6287 367.042 54.6137C366.407 53.3005 365.78 51.9748 365.188 50.6398C366.349 51.7042 367.51 52.7687 368.664 53.839C369.697 50.3645 370.728 46.8966 371.807 43.4344C372.034 47.1092 372.22 50.7858 372.392 54.4607C373.591 53.8181 374.79 53.1689 375.993 52.5472C375.962 52.5841 375.937 52.6218 375.905 52.6587C375.183 53.5696 374.442 54.4715 373.702 55.3666C373.702 55.3666 373.702 55.3666 373.701 55.3732C373.701 55.3732 373.693 55.3858 373.686 55.385C373.686 55.385 373.679 55.3909 373.678 55.3976C373.671 55.4035 373.662 55.4161 373.661 55.4227C373.661 55.4227 373.622 55.4655 373.606 55.4907C373.597 55.5033 373.59 55.5092 373.582 55.5217C373.55 55.5587 373.526 55.5897 373.494 55.6266C376.734 56.6917 379.974 57.75 383.212 58.8285L383.226 58.8301Z" fill="#7FF9FF"/>
<path d="M40.0095 104.017C37.4929 104.214 34.9662 104.383 32.4521 104.561C32.5557 104.771 32.6668 104.974 32.7713 105.177C32.9524 105.532 33.1336 105.886 33.308 106.24C33.3906 106.4 33.4665 106.558 33.5482 106.725C33.5869 106.797 33.619 106.869 33.6577 106.942C33.6577 106.942 33.6897 107.013 33.7124 107.05C33.7453 107.115 33.7782 107.18 33.8111 107.245C33.8111 107.245 33.8161 107.26 33.822 107.267C33.833 107.289 33.8439 107.311 33.8548 107.332C33.8818 107.39 33.9096 107.441 33.9374 107.492C33.0632 106.747 32.204 105.991 31.3448 105.235C30.5525 107.849 29.7737 110.464 28.9555 113.068C28.779 110.378 28.6502 107.686 28.508 104.993C27.4305 105.589 26.3487 106.164 25.2595 106.746C25.8106 106.065 26.3818 105.387 26.9514 104.723C26.9514 104.723 26.9522 104.716 26.9597 104.71L26.9605 104.704C26.9605 104.704 26.9688 104.691 26.9763 104.685C26.9763 104.685 27.0005 104.654 27.0163 104.636C27.0171 104.629 27.0247 104.623 27.0322 104.617C27.0555 104.593 27.0788 104.569 27.0962 104.537C27.1204 104.506 27.1512 104.475 27.1753 104.444C27.2228 104.389 27.2711 104.327 27.3252 104.272C27.4119 104.174 27.4917 104.075 27.5783 103.977C25.1794 103.204 22.7738 102.43 20.3757 101.651C22.9048 101.461 25.4391 101.286 27.9666 101.11C27.9498 101.081 27.9396 101.053 27.9227 101.024C27.9227 101.024 27.9176 101.009 27.9118 101.002C27.9016 100.973 27.884 100.951 27.8731 100.929C27.8739 100.923 27.8613 100.914 27.8629 100.901C27.3818 99.9392 26.9074 98.9784 26.4621 98.0007C27.339 98.7794 28.2092 99.5573 29.0785 100.342C29.8402 97.8125 30.6084 95.2839 31.4094 92.7661C31.5942 95.4442 31.738 98.124 31.8744 100.81C32.7733 100.341 33.6648 99.879 34.5688 99.4248C34.5446 99.4558 34.5213 99.4802 34.5047 99.5053C33.9627 100.166 33.414 100.827 32.8603 101.473C32.8603 101.473 32.8596 101.479 32.8521 101.485C32.8521 101.485 32.8521 101.485 32.8513 101.492L32.8429 101.504C32.8429 101.504 32.8121 101.535 32.8029 101.554C32.8021 101.561 32.7946 101.567 32.7871 101.572C32.7638 101.597 32.7405 101.621 32.723 101.653C35.1546 102.437 37.5937 103.215 40.017 104.011L40.0095 104.017Z" fill="#7FF9FF"/>
<path d="M170.585 51.6664C168.419 51.8318 166.248 51.9762 164.076 52.134C164.169 52.3151 164.264 52.4896 164.351 52.6632C164.505 52.9671 164.665 53.2717 164.818 53.5755C164.873 53.6841 164.922 53.7851 164.976 53.8936C164.993 53.9228 165.009 53.9587 165.026 53.9879C165.059 54.053 165.086 54.1106 165.119 54.1757C165.136 54.2049 165.146 54.2333 165.163 54.2625C165.19 54.3201 165.217 54.3778 165.244 54.4287C165.244 54.4287 165.249 54.4429 165.255 54.4504C165.288 54.5155 165.321 54.5806 165.354 54.6457C164.603 54.0045 163.86 53.3575 163.124 52.7046C162.444 54.9518 161.77 57.2065 161.071 59.4446C160.923 57.1311 160.81 54.8149 160.684 52.4971C159.759 53.0099 158.822 53.5076 157.886 54.0054C158.365 53.4182 158.849 52.8385 159.34 52.2663L159.34 52.2596C159.34 52.2596 159.34 52.2596 159.341 52.2529C159.341 52.2529 159.343 52.2395 159.356 52.2411C159.356 52.2411 159.38 52.2101 159.389 52.1975C159.389 52.1975 159.397 52.1849 159.404 52.1791C159.421 52.1539 159.444 52.1363 159.46 52.1111C159.46 52.1111 159.508 52.0557 159.524 52.0306C159.548 52.0063 159.572 51.9752 159.595 51.9509C159.612 51.9257 159.635 51.9014 159.651 51.8829C159.722 51.7965 159.794 51.7101 159.866 51.6237C157.8 50.959 155.728 50.2935 153.669 49.623C155.849 49.4593 158.027 49.309 160.205 49.1587C160.194 49.137 160.184 49.1086 160.166 49.086C160.166 49.086 160.161 49.0718 160.155 49.071C160.144 49.0493 160.133 49.0276 160.122 49.0059C160.122 49.0059 160.122 49.0059 160.123 48.9992C160.123 48.9992 160.118 48.985 160.111 48.9842C159.695 48.1595 159.286 47.3289 158.906 46.4881C159.66 47.1569 160.408 47.8248 161.154 48.5061C161.811 46.3309 162.469 44.1557 163.16 41.9846C163.315 44.2922 163.443 46.5966 163.564 48.9069C164.332 48.5043 165.108 48.1025 165.888 47.7149C165.872 47.74 165.848 47.7643 165.832 47.7895C165.369 48.3583 164.893 48.9254 164.417 49.4858C164.417 49.4858 164.416 49.4925 164.41 49.4917C164.41 49.4917 164.41 49.4917 164.409 49.4984C164.409 49.4984 164.408 49.5051 164.401 49.5109C164.401 49.5109 164.377 49.542 164.368 49.5546C164.368 49.5546 164.36 49.5671 164.352 49.573C164.337 49.5915 164.321 49.6099 164.305 49.6284C164.305 49.6284 164.304 49.6351 164.297 49.641C166.388 50.3156 168.486 50.991 170.577 51.6723L170.585 51.6664Z" fill="#7FF9FF"/>
<path d="M156.023 108.828C154 108.983 151.98 109.119 149.959 109.261C149.347 111.285 148.742 113.311 148.11 115.326C147.972 113.217 147.875 111.107 147.763 109.001C145.835 108.381 143.906 107.76 141.979 107.132C144 106.983 146.028 106.842 148.055 106.701C148.656 104.715 149.257 102.73 149.883 100.755C150.021 102.816 150.129 104.887 150.239 106.952C152.174 107.573 154.103 108.194 156.03 108.822L156.023 108.828Z" fill="#7FF9FF"/>
<path d="M364.177 74.282C362.066 74.4404 359.956 74.5854 357.846 74.7372C357.21 76.8471 356.573 78.9636 355.917 81.0711C355.775 78.8738 355.669 76.6738 355.555 74.4731C353.541 73.8283 351.528 73.1768 349.515 72.5253C351.626 72.3669 353.743 72.2226 355.853 72.0709C356.477 70.0004 357.102 67.9298 357.759 65.8701C357.905 68.0272 358.018 70.1803 358.13 72.3334C360.144 72.9782 362.164 73.6305 364.176 74.2887L364.177 74.282Z" fill="#7FF9FF"/>
<path d="M44.2851 66.2763C43.0235 66.3747 41.7567 66.4589 40.4892 66.5498C40.1051 67.8141 39.7269 69.0858 39.3368 70.3426C39.2524 69.0215 39.1881 67.7029 39.1171 66.3835C37.908 65.9924 36.7048 65.6089 35.4965 65.2111C36.7648 65.1135 38.0315 65.0294 39.299 64.9385C39.6733 63.7002 40.0483 62.4552 40.4426 61.2193C40.5303 62.5136 40.5977 63.8055 40.6653 65.0973C41.8744 65.4884 43.0843 65.8727 44.2859 66.2696L44.2851 66.2763Z" fill="#7FF9FF"/>
<path d="M19.4934 23.7563C18.2318 23.8547 16.9651 23.9389 15.6976 24.0298C15.3134 25.2941 14.9351 26.5658 14.5443 27.8293C14.4599 26.5082 14.3956 25.1896 14.3246 23.8702C13.1155 23.4791 11.9123 23.0956 10.704 22.6978C11.9723 22.6002 13.239 22.5161 14.5065 22.4252C14.8807 21.1869 15.2558 19.9419 15.6501 18.706C15.7377 20.0003 15.8053 21.2921 15.8728 22.584C17.0827 22.9684 18.2918 23.3594 19.4934 23.7563Z" fill="#7FF9FF"/>
<path d="M248.314 119.892C247.053 119.99 245.786 120.074 244.519 120.165C244.134 121.429 243.756 122.701 243.366 123.958C243.282 122.637 243.217 121.318 243.146 119.999C241.937 119.608 240.734 119.224 239.526 118.826C240.794 118.729 242.061 118.645 243.328 118.554C243.703 117.316 244.078 116.071 244.472 114.835C244.56 116.129 244.627 117.421 244.695 118.713C245.904 119.104 247.114 119.488 248.315 119.885L248.314 119.892Z" fill="#7FF9FF"/>
<path d="M232.893 121.385C231.631 121.483 230.364 121.567 229.097 121.658C228.712 122.922 228.334 124.194 227.944 125.451C227.86 124.13 227.796 122.811 227.725 121.492C226.515 121.101 225.312 120.717 224.104 120.319C225.371 120.228 226.639 120.138 227.906 120.047C228.281 118.808 228.656 117.563 229.05 116.327C229.138 117.622 229.205 118.914 229.273 120.205C230.482 120.596 231.692 120.981 232.893 121.378L232.893 121.385Z" fill="#7FF9FF"/>
<path d="M314.899 94.4781C313.788 94.5609 312.679 94.6369 311.562 94.7189C311.223 95.8324 310.891 96.9468 310.547 98.0529C310.469 96.8957 310.42 95.7351 310.357 94.5728C309.298 94.2339 308.232 93.8942 307.174 93.5419C308.285 93.4591 309.401 93.3838 310.518 93.3019C310.847 92.2076 311.176 91.12 311.518 90.034C311.598 91.1711 311.657 92.3058 311.717 93.4404C312.776 93.7793 313.841 94.1258 314.899 94.4714L314.899 94.4781Z" fill="#7FF9FF"/>
</svg>
