<svg width="249" height="229" viewBox="0 0 249 229" fill="none" xmlns="http://www.w3.org/2000/svg">
<path opacity="0.43" d="M243 6L227.5 39L213.5 107.5L170 170L139 180L118.5 161.5L84.5 131.5L72 84.5L54 73.5L4.5 60L11 88.5L36.5 183M36.5 183L54 200.5L52 219L22.5 218L36.5 183Z" stroke="#7FF9FF" stroke-width="1.5" stroke-linejoin="round"/>
<path d="M60.2985 218.7C58.2286 218.289 56.1519 217.891 54.0752 217.494C54.1089 217.446 54.1359 217.399 54.1696 217.352C54.1696 217.352 54.1831 217.332 54.1831 217.325C54.1831 217.325 54.1831 217.318 54.1898 217.311C54.6011 216.671 55.0056 216.024 55.3967 215.37C55.4102 215.343 55.4304 215.316 55.4439 215.289C54.709 215.794 53.9875 216.314 53.2593 216.826C52.8413 214.453 52.4233 212.079 51.9715 209.713C51.5602 212.046 51.1691 214.385 50.7848 216.725C49.9488 216.125 49.1059 215.525 48.2631 214.931C48.7553 215.754 49.2745 216.556 49.7937 217.359C49.7937 217.359 49.8341 217.419 49.8544 217.446C49.8544 217.453 49.8611 217.46 49.8678 217.467C49.8813 217.487 49.8948 217.514 49.9083 217.534C47.7372 217.979 45.5661 218.417 43.395 218.876C45.5594 219.307 47.7237 219.719 49.8813 220.137C49.7802 220.292 49.6858 220.447 49.5847 220.602C49.5644 220.629 49.5509 220.656 49.5307 220.689C49.5307 220.689 49.497 220.743 49.4835 220.764C49.4835 220.764 49.4768 220.777 49.47 220.784C49.4633 220.797 49.4498 220.818 49.4431 220.831C49.4431 220.831 49.4296 220.851 49.4296 220.858C49.4296 220.858 49.4228 220.872 49.4161 220.872C48.9981 221.532 48.58 222.193 48.1755 222.867C49.052 222.233 49.9285 221.593 50.7916 220.946C51.2096 223.326 51.6209 225.713 52.0659 228.086C52.4839 225.672 52.875 223.252 53.2728 220.838C54.1021 221.418 54.9247 221.991 55.7608 222.557C55.7136 222.49 55.6664 222.416 55.626 222.348C55.5922 222.294 55.5518 222.24 55.5181 222.186C55.5181 222.186 55.4776 222.126 55.4574 222.099C55.4169 222.038 55.3765 221.977 55.336 221.917C55.0528 221.485 54.7764 221.054 54.4865 220.622C54.3718 220.447 54.2572 220.278 54.1426 220.11C56.3069 219.665 58.4646 219.226 60.6289 218.775C60.5143 218.754 60.3929 218.727 60.2783 218.707L60.2985 218.7Z" fill="#7FF9FF"/>
<path d="M14.7126 91.8466C14.8946 91.968 15.0766 92.0893 15.2587 92.2039C15.2048 92.1298 15.1508 92.0488 15.1036 91.9747C15.1036 91.9747 15.1036 91.9747 15.1036 91.968C15.0632 91.9073 15.0227 91.8466 14.9823 91.7859C14.9823 91.7859 14.9351 91.7185 14.9148 91.6847C14.4226 90.9431 13.9237 90.2014 13.4112 89.4732C15.879 88.981 18.3535 88.4955 20.8213 87.9831C18.3198 87.5044 15.8116 87.0324 13.3034 86.5672C13.3371 86.5132 13.3708 86.4593 13.4112 86.4054C13.4112 86.4054 13.4315 86.3784 13.4382 86.3649C13.9035 85.6502 14.3687 84.9355 14.8204 84.2073C14.8407 84.1803 14.8609 84.1466 14.8744 84.1196C14.0383 84.6793 13.209 85.2524 12.3796 85.8322C11.9077 83.1959 11.4289 80.5596 10.9098 77.9368C10.4378 80.5326 9.99279 83.1285 9.55452 85.7244C8.59709 85.0569 7.63965 84.3961 6.67547 83.7353C7.24184 84.6456 7.83518 85.5423 8.42852 86.4323C8.44875 86.466 8.47572 86.4998 8.49595 86.5335C8.49595 86.5402 8.50269 86.5469 8.50943 86.5537C8.50943 86.5537 8.54315 86.6076 8.56337 86.6278C6.08213 87.1201 3.60088 87.6123 1.11963 88.118C3.58739 88.5967 6.06864 89.0552 8.5364 89.5204C8.42178 89.6957 8.30716 89.871 8.19928 90.0396C8.17905 90.0733 8.15882 90.1003 8.13185 90.1407C8.10488 90.1744 8.08465 90.2149 8.06443 90.2486C8.05094 90.2688 8.0442 90.2823 8.03071 90.3025C8.03071 90.3025 8.01723 90.3228 8.01049 90.3295C8.01049 90.3295 8.00374 90.343 7.997 90.3497C7.51828 91.0847 7.03956 91.8196 6.58107 92.5613C7.58571 91.8533 8.5836 91.1521 9.57475 90.4239C10.0535 93.067 10.5187 95.7168 11.0311 98.3599C11.5099 95.6763 11.9549 92.9928 12.4134 90.3093C13.1753 90.8285 13.9439 91.3476 14.7126 91.8533V91.8466Z" fill="#7FF9FF"/>
<path d="M220.372 107.145C218.687 106.822 216.994 106.505 215.302 106.188C215.322 106.161 215.336 106.134 215.349 106.114C215.356 106.1 215.363 106.087 215.376 106.073C215.376 106.073 215.39 106.053 215.396 106.04C215.727 105.534 216.057 105.021 216.381 104.502C216.394 104.482 216.408 104.462 216.421 104.435C215.821 104.833 215.235 105.244 214.641 105.655C214.304 103.774 213.96 101.9 213.596 100.025C213.259 101.873 212.942 103.727 212.632 105.581C211.951 105.102 211.263 104.63 210.582 104.158C210.987 104.806 211.405 105.446 211.83 106.08C211.83 106.08 211.863 106.127 211.877 106.147C211.877 106.147 211.884 106.161 211.89 106.161C211.904 106.181 211.917 106.195 211.924 106.215C210.157 106.566 208.384 106.916 206.618 107.273C208.377 107.611 210.144 107.941 211.904 108.271C211.809 108.42 211.715 108.568 211.614 108.716C211.614 108.716 211.587 108.757 211.573 108.777C211.573 108.777 211.573 108.791 211.56 108.791C211.553 108.804 211.546 108.818 211.533 108.824C211.533 108.824 211.526 108.838 211.519 108.844C211.519 108.844 211.519 108.851 211.513 108.858C211.169 109.384 210.832 109.903 210.501 110.436C211.216 109.93 211.931 109.431 212.632 108.912C212.976 110.8 213.306 112.688 213.67 114.569C214.007 112.661 214.331 110.746 214.655 108.831C215.329 109.289 216.003 109.748 216.684 110.193C216.644 110.139 216.61 110.085 216.576 110.031C216.549 109.991 216.516 109.944 216.489 109.903C216.489 109.903 216.455 109.856 216.442 109.829C216.408 109.782 216.374 109.735 216.347 109.681C216.03 109.202 215.707 108.723 215.376 108.251C217.136 107.901 218.903 107.557 220.662 107.193C220.568 107.172 220.474 107.159 220.372 107.139V107.145Z" fill="#7FF9FF"/>
<path d="M29.7011 217.527C27.8469 217.17 25.986 216.826 24.1318 216.475C24.152 216.448 24.1655 216.421 24.1857 216.388C24.1925 216.374 24.206 216.361 24.2127 216.347C24.2127 216.347 24.2194 216.334 24.2262 216.327C24.2262 216.327 24.2262 216.327 24.2262 216.32C24.5903 215.761 24.9544 215.201 25.305 214.635C25.3185 214.614 25.332 214.587 25.3522 214.561C24.6982 214.999 24.0441 215.451 23.3969 215.902C23.026 213.839 22.6484 211.776 22.2439 209.713C21.873 211.742 21.5224 213.778 21.1853 215.815C20.4369 215.289 19.6817 214.77 18.9266 214.257C19.3716 214.972 19.8301 215.673 20.302 216.367C20.302 216.367 20.3088 216.381 20.3155 216.388C20.329 216.408 20.3425 216.421 20.356 216.442C20.356 216.448 20.3627 216.455 20.3695 216.462C20.3829 216.482 20.3964 216.502 20.4099 216.523C18.4681 216.907 16.5195 217.291 14.5776 217.689C16.5127 218.06 18.4546 218.424 20.3897 218.788C20.302 218.923 20.2144 219.058 20.1267 219.193C20.1132 219.22 20.093 219.247 20.0728 219.274C20.0728 219.274 20.0391 219.327 20.0189 219.361C20.0121 219.375 19.9986 219.388 19.9919 219.402C19.9919 219.402 19.9784 219.422 19.9717 219.435C19.5941 220.008 19.2232 220.588 18.8591 221.168C19.6413 220.615 20.4301 220.062 21.2055 219.496C21.5831 221.566 21.9472 223.643 22.345 225.713C22.7159 223.609 23.0665 221.505 23.4238 219.402C24.1655 219.901 24.9072 220.406 25.6556 220.899C25.6286 220.858 25.6017 220.818 25.5747 220.777C25.5612 220.757 25.5477 220.737 25.5342 220.716C25.5005 220.669 25.4736 220.622 25.4398 220.575C25.4398 220.575 25.4061 220.521 25.3859 220.494C25.332 220.413 25.278 220.332 25.2241 220.251C25.1634 220.164 25.1027 220.076 25.0488 219.981C24.7723 219.57 24.4959 219.166 24.2127 218.761C26.1478 218.37 28.0829 217.992 30.018 217.595C29.9101 217.574 29.809 217.554 29.7011 217.534V217.527Z" fill="#7FF9FF"/>
<path d="M90.7884 131.385C89.1433 131.129 87.4981 130.879 85.8597 130.63C85.8731 130.609 85.8866 130.589 85.8934 130.569C85.9069 130.549 85.9203 130.528 85.9338 130.501C85.9338 130.501 85.9338 130.488 85.9406 130.488C86.244 129.982 86.5474 129.477 86.8373 128.971C86.8508 128.951 86.8643 128.93 86.871 128.91C86.3047 129.315 85.7518 129.733 85.1921 130.151C84.8011 128.344 84.41 126.544 83.992 124.75C83.729 126.55 83.4863 128.351 83.2436 130.151C82.5693 129.713 81.8883 129.281 81.2141 128.85C81.6254 129.463 82.0569 130.063 82.4884 130.663C82.4884 130.663 82.4951 130.677 82.5019 130.684C82.5154 130.697 82.5221 130.717 82.5356 130.731C82.5356 130.731 82.5423 130.737 82.5491 130.744C82.5491 130.744 82.5693 130.771 82.5828 130.791C80.8837 131.189 79.1846 131.587 77.4922 131.998C79.2048 132.268 80.9241 132.524 82.6367 132.787C82.5626 132.909 82.4884 133.03 82.4142 133.151C82.4007 133.172 82.3873 133.199 82.3738 133.219C82.3738 133.219 82.3401 133.266 82.3266 133.293C82.3266 133.306 82.3131 133.32 82.3063 133.327C82.3063 133.333 82.2929 133.347 82.2861 133.36C81.976 133.879 81.6658 134.399 81.3624 134.918C82.0366 134.405 82.7109 133.9 83.3717 133.374C83.7695 135.188 84.1471 136.995 84.5651 138.802C84.828 136.941 85.0708 135.08 85.3203 133.219C85.9878 133.637 86.6553 134.055 87.3295 134.466C87.3026 134.432 87.2823 134.399 87.2554 134.365C87.2419 134.345 87.2284 134.331 87.2149 134.311C87.1879 134.271 87.1542 134.23 87.1272 134.19C87.1272 134.19 87.0935 134.142 87.0801 134.122C87.0463 134.075 87.0126 134.028 86.9789 133.987C86.9047 133.886 86.8306 133.785 86.7632 133.684C86.5069 133.333 86.2507 132.983 85.9945 132.639C87.6869 132.241 89.3793 131.843 91.0649 131.439C90.9705 131.425 90.8761 131.412 90.7884 131.398V131.385Z" fill="#7FF9FF"/>
<path d="M124.312 161.369C122.91 161.099 121.5 160.836 120.098 160.573C120.111 160.553 120.118 160.539 120.132 160.519C120.138 160.506 120.152 160.492 120.159 160.472C120.159 160.472 120.159 160.465 120.165 160.459C120.165 160.459 120.165 160.459 120.165 160.452C120.442 160.027 120.718 159.602 120.981 159.171C120.995 159.151 121.002 159.137 121.015 159.117C120.516 159.447 120.024 159.791 119.538 160.128C119.255 158.564 118.972 157.006 118.669 155.449C118.385 156.986 118.122 158.523 117.866 160.068C117.3 159.67 116.727 159.279 116.16 158.888C116.498 159.427 116.848 159.96 117.199 160.486C117.199 160.486 117.205 160.499 117.212 160.506C117.219 160.519 117.232 160.533 117.239 160.546C117.239 160.546 117.239 160.553 117.246 160.56C117.246 160.56 117.266 160.587 117.273 160.6C115.803 160.89 114.333 161.18 112.863 161.483C114.326 161.767 115.796 162.036 117.259 162.313C117.192 162.414 117.125 162.515 117.057 162.623C117.044 162.643 117.03 162.663 117.017 162.684C117.017 162.684 116.99 162.724 116.976 162.744C116.969 162.758 116.963 162.764 116.956 162.778C116.956 162.778 116.956 162.785 116.949 162.791C116.949 162.791 116.949 162.798 116.943 162.805C116.659 163.236 116.376 163.675 116.1 164.12C116.693 163.702 117.286 163.284 117.873 162.852C118.156 164.423 118.433 165.987 118.736 167.552C119.019 165.96 119.282 164.369 119.552 162.778C120.112 163.156 120.671 163.54 121.238 163.911C121.217 163.884 121.197 163.85 121.177 163.823C121.163 163.81 121.157 163.789 121.143 163.776C121.116 163.742 121.096 163.702 121.069 163.668C121.069 163.668 121.042 163.628 121.028 163.607C121.002 163.567 120.975 163.526 120.948 163.486C120.887 163.398 120.826 163.304 120.772 163.216C120.563 162.906 120.354 162.596 120.145 162.293C121.608 161.996 123.078 161.713 124.541 161.409C124.46 161.396 124.38 161.376 124.305 161.362L124.312 161.369Z" fill="#7FF9FF"/>
<path d="M60.3589 72.772C58.7879 72.4686 57.2169 72.1787 55.6459 71.882C55.6594 71.8618 55.6729 71.8483 55.6796 71.8281C55.6796 71.8281 55.6796 71.8146 55.6864 71.8146C55.6931 71.8011 55.6998 71.7944 55.7066 71.7809C55.7066 71.7809 55.7133 71.7674 55.7201 71.7606C55.7201 71.7606 55.7201 71.7539 55.7268 71.7471C56.037 71.2752 56.3404 70.7964 56.6438 70.3177C56.6573 70.2975 56.6708 70.2773 56.6775 70.2571C56.1246 70.6279 55.5717 71.0122 55.0256 71.3898C54.7087 69.6435 54.3918 67.8972 54.0547 66.1576C53.7445 67.8769 53.4478 69.5963 53.1579 71.3156C52.5241 70.8706 51.8903 70.4324 51.2498 69.9941C51.6206 70.5942 52.0184 71.1875 52.4095 71.7809C52.423 71.8011 52.4365 71.8213 52.4567 71.8483C52.4567 71.8483 52.4634 71.855 52.4634 71.8618C52.4769 71.882 52.4837 71.8955 52.4971 71.909C50.852 72.2394 49.2068 72.563 47.5684 72.8934C49.2068 73.2103 50.8452 73.5137 52.4837 73.8238C52.4095 73.9385 52.3353 74.0531 52.2612 74.1677C52.2477 74.1879 52.2342 74.2082 52.214 74.2351C52.214 74.2351 52.1802 74.2823 52.1668 74.3093C52.16 74.3228 52.1533 74.3295 52.1465 74.343C52.1465 74.343 52.1398 74.3565 52.133 74.3632C52.133 74.3632 52.133 74.37 52.1263 74.3767C51.8094 74.8622 51.4925 75.3476 51.1891 75.8466C51.8499 75.3814 52.5174 74.9094 53.1714 74.4307C53.4883 76.1837 53.7985 77.9368 54.1356 79.6831C54.4525 77.9098 54.7491 76.1298 55.0458 74.3498C55.6729 74.7746 56.2999 75.1993 56.9337 75.6106C56.9135 75.5769 56.8933 75.5432 56.8663 75.5162C56.8528 75.496 56.8393 75.4825 56.8326 75.4623C56.8056 75.4218 56.7786 75.3814 56.7517 75.3409C56.7517 75.3409 56.7247 75.2937 56.7045 75.2735C56.6708 75.2263 56.6438 75.1858 56.6168 75.1386C56.5494 75.0375 56.482 74.9431 56.4213 74.842C56.192 74.4981 55.9561 74.1542 55.7201 73.8104C57.3585 73.48 58.9969 73.1631 60.6286 72.826C60.541 72.8057 60.4533 72.7922 60.3589 72.772Z" fill="#7FF9FF"/>
<path d="M176.634 169.756C174.915 169.426 173.188 169.102 171.469 168.786C171.139 166.938 170.802 165.091 170.444 163.25C170.107 165.097 169.79 166.952 169.48 168.806C167.673 169.163 165.866 169.52 164.059 169.891C165.866 170.242 167.673 170.572 169.48 170.916C169.824 172.804 170.154 174.692 170.518 176.573C170.856 174.685 171.172 172.791 171.489 170.896C173.296 170.539 175.097 170.181 176.897 169.81C176.809 169.797 176.722 169.777 176.634 169.756Z" fill="#7FF9FF"/>
<path d="M41.9249 182.338C40.327 182.035 38.7222 181.731 37.1243 181.434C36.8141 179.715 36.5039 177.996 36.1668 176.283C35.8499 178.003 35.56 179.729 35.2701 181.448C33.5912 181.778 31.9123 182.115 30.2334 182.453C31.9123 182.776 33.5912 183.086 35.2768 183.403C35.5937 185.156 35.9039 186.909 36.241 188.662C36.5511 186.909 36.8478 185.15 37.1445 183.39C38.8234 183.059 40.5023 182.729 42.1744 182.385C42.0935 182.372 42.0126 182.351 41.9317 182.338H41.9249Z" fill="#7FF9FF"/>
<path d="M248.361 5.97386C246.736 5.65697 245.118 5.34009 243.493 5.02994C243.203 3.35105 242.906 1.67215 242.589 0C242.272 1.67889 241.976 3.35776 241.686 5.04339C240.04 5.36029 238.402 5.67722 236.757 6.00086C238.395 6.3245 240.034 6.64139 241.679 6.95829C241.982 8.67089 242.272 10.3902 242.589 12.0961C242.906 10.3835 243.196 8.66414 243.499 6.95154C245.138 6.63464 246.776 6.31775 248.415 5.99411C248.394 5.99411 248.381 5.98736 248.361 5.98061V5.97386Z" fill="#7FF9FF"/>
<path d="M1.4429 60.0557C2.38011 60.204 3.31058 60.3591 4.24779 60.5074C4.5512 61.9705 4.84787 63.4404 5.17151 64.9036C5.39402 63.4202 5.60304 61.9368 5.8188 60.4535C7.22124 60.1366 8.62369 59.8264 10.0194 59.5028C8.60346 59.2668 7.18079 59.0375 5.76486 58.815C5.46819 57.3789 5.17151 55.9427 4.84787 54.5133C4.61863 55.9629 4.40961 57.4193 4.20733 58.869C2.80489 59.1859 1.40244 59.5028 0 59.8197C0.485462 59.9006 0.964181 59.9748 1.44964 60.0557H1.4429Z" fill="#7FF9FF"/>
<path d="M74.6193 84.2478C75.2464 84.1062 75.8734 83.9646 76.4938 83.8163C75.1722 83.6005 73.8507 83.3847 72.5292 83.1757C72.2527 81.8407 71.9763 80.5057 71.6796 79.1707C71.4706 80.5192 71.275 81.8744 71.0795 83.2297C69.7715 83.5263 68.4634 83.8163 67.1621 84.1197C68.4836 84.3354 69.7984 84.5512 71.12 84.7602C71.4032 86.1222 71.6796 87.491 71.9763 88.8529C72.1853 87.4707 72.3808 86.0952 72.5764 84.713C73.2573 84.5647 73.9316 84.4029 74.6126 84.2545L74.6193 84.2478Z" fill="#7FF9FF"/>
<path d="M143.231 179.425C141.977 179.216 140.716 179.014 139.462 178.812C139.186 177.477 138.909 176.142 138.613 174.807C138.404 176.155 138.208 177.51 138.013 178.866C136.705 179.162 135.397 179.452 134.095 179.756C135.417 179.971 136.732 180.187 138.053 180.396C138.336 181.758 138.613 183.127 138.909 184.489C139.118 183.107 139.314 181.731 139.509 180.349C140.811 180.052 142.119 179.762 143.42 179.459C143.359 179.445 143.292 179.439 143.231 179.425Z" fill="#7FF9FF"/>
<path d="M230.898 38.1964C229.819 38.021 228.747 37.8457 227.668 37.6772C227.432 36.5309 227.196 35.3914 226.94 34.252C226.758 35.4049 226.596 36.5647 226.427 37.7244C225.308 37.9738 224.189 38.2301 223.076 38.4863C224.202 38.6751 225.335 38.8571 226.468 39.0324C226.71 40.1989 226.946 41.3721 227.203 42.5318C227.385 41.3518 227.546 40.1719 227.715 38.9852C228.834 38.7357 229.947 38.4863 231.066 38.2233C231.012 38.2166 230.958 38.2031 230.904 38.1964H230.898Z" fill="#7FF9FF"/>
<path d="M53.3942 196.396C53.3942 196.396 53.3942 196.369 53.3875 196.356C53.2324 197.333 53.0976 198.304 52.956 199.282C52.012 199.491 51.0681 199.707 50.1309 199.922C51.0816 200.078 52.0322 200.233 52.9897 200.388C53.192 201.372 53.3942 202.357 53.61 203.341C53.7583 202.343 53.8999 201.352 54.0415 200.354C54.9855 200.145 55.9227 199.929 56.8666 199.713C55.9159 199.558 54.9585 199.403 54.0078 199.248C53.8123 198.298 53.61 197.347 53.401 196.396H53.3942Z" fill="#7FF9FF"/>
<path d="M82.4405 208.526C81.328 208.344 80.2155 208.162 79.0963 207.987C78.8535 206.8 78.604 205.62 78.3411 204.44C78.1523 205.633 77.9837 206.834 77.8152 208.034C76.6555 208.297 75.5025 208.553 74.3428 208.823C75.5092 209.018 76.6824 209.2 77.8489 209.389C78.0984 210.596 78.3478 211.81 78.6108 213.01C78.7996 211.789 78.9681 210.562 79.1435 209.342C80.2964 209.079 81.4561 208.823 82.6091 208.553C82.5552 208.546 82.4945 208.533 82.4405 208.526Z" fill="#7FF9FF"/>
</svg>
