<svg width="261" height="182" viewBox="0 0 261 182" fill="none" xmlns="http://www.w3.org/2000/svg">
<path opacity="0.43" d="M51 8.5L48 52.5V64.5L53 112.5L108 174.5L171 160.5L254 95.5L226.5 89.5L214 62H179.5L92 103L53 113.5L6 122.5" stroke="#7FF9FF" stroke-width="1.5" stroke-linejoin="round"/>
<path d="M58.977 8.71134C56.9071 9.14286 54.8304 9.55415 52.7604 9.97219C52.8683 10.1408 52.9829 10.3026 53.0908 10.4644C53.2796 10.7476 53.4616 11.0308 53.6504 11.314C53.7313 11.4421 53.819 11.5702 53.8999 11.6983C53.9403 11.759 53.9741 11.8129 54.0145 11.8736C54.0145 11.8736 54.0482 11.9343 54.0684 11.9612C54.0887 11.9882 54.1089 12.0219 54.1223 12.0489C54.1358 12.0759 54.1561 12.0961 54.1696 12.1231C54.1696 12.1231 54.1763 12.1365 54.1831 12.1433C54.1966 12.1568 54.2033 12.177 54.2168 12.1972C54.2437 12.2377 54.2707 12.2849 54.3044 12.3253C53.502 11.7859 52.7132 11.2263 51.9244 10.6734C51.5333 12.9861 51.1557 15.3055 50.7444 17.6182C50.3264 15.3392 49.942 13.0535 49.5442 10.7678C48.7149 11.3881 47.8721 11.9949 47.0293 12.6018C47.4204 11.9612 47.8181 11.3274 48.2226 10.6936V10.6869C48.2226 10.6869 48.2226 10.6869 48.2226 10.6802C48.2226 10.6802 48.2226 10.6667 48.2294 10.6667C48.2294 10.6667 48.2496 10.6397 48.2564 10.6195C48.2564 10.6195 48.2631 10.606 48.2699 10.5992C48.2834 10.5723 48.3036 10.552 48.317 10.5251C48.317 10.5251 48.3576 10.4644 48.371 10.4374C48.4048 10.3835 48.4384 10.3295 48.4789 10.2756C48.5395 10.1812 48.6002 10.0868 48.6609 9.99242C46.591 9.58112 44.5143 9.17657 42.4443 8.75853C44.5278 8.32701 46.6112 7.91572 48.6879 7.49768C48.6744 7.47746 48.6609 7.45723 48.6474 7.43026C48.6474 7.43026 48.6407 7.41677 48.634 7.41003C48.6205 7.3898 48.607 7.36958 48.5935 7.34935C48.5935 7.34935 48.5935 7.34935 48.5935 7.34261C48.5935 7.34261 48.5868 7.32912 48.58 7.32912C48.0811 6.56047 47.5889 5.78508 47.1169 4.99621C47.9193 5.56932 48.7284 6.14244 49.524 6.72229C49.9016 4.47703 50.2791 2.23852 50.6837 0C51.1085 2.27223 51.5063 4.54446 51.8906 6.81669C52.5851 6.32448 53.2863 5.83228 53.9875 5.34682C53.974 5.37379 53.9539 5.40076 53.9404 5.42773C53.5763 6.02107 53.2054 6.61441 52.8278 7.20101C52.8076 7.22798 52.7941 7.25495 52.7738 7.28866C52.7738 7.28866 52.7739 7.29541 52.7672 7.29541C52.7672 7.29541 52.7672 7.29541 52.7672 7.30215C52.7672 7.30215 52.7672 7.31564 52.7604 7.31564C52.7604 7.31564 52.7402 7.34935 52.7334 7.36283C52.7334 7.36283 52.7267 7.37632 52.7199 7.38306C52.7199 7.38306 52.693 7.43026 52.6728 7.45723C54.7697 7.86852 56.8733 8.27982 58.9703 8.7046L58.977 8.71134Z" fill="#7FF9FF"/>
<path d="M60.1098 112.472C58.3635 112.823 56.6105 113.16 54.8642 113.504C54.9586 113.638 55.0529 113.773 55.1406 113.908C55.2822 114.124 55.4305 114.333 55.5721 114.549C55.5856 114.569 55.5991 114.589 55.6126 114.603C55.68 114.71 55.7542 114.812 55.8216 114.92C55.8553 114.967 55.8823 115.014 55.916 115.061C55.916 115.061 55.9497 115.108 55.9632 115.129C55.9632 115.129 55.9969 115.176 56.0104 115.203C56.0239 115.223 56.0374 115.243 56.0509 115.263C56.0509 115.263 56.0509 115.27 56.0576 115.277C56.0644 115.29 56.0778 115.304 56.0846 115.317C56.1048 115.351 56.1317 115.391 56.1587 115.425C55.4845 114.98 54.817 114.522 54.1495 114.07C53.8191 115.971 53.4954 117.866 53.1516 119.761C52.7942 117.893 52.4773 116.019 52.1402 114.144C51.439 114.657 50.731 115.155 50.0163 115.648C50.3332 115.149 50.6569 114.65 50.9805 114.151C50.994 114.131 51.0074 114.104 51.0277 114.083C51.0277 114.083 51.0277 114.083 51.0277 114.077C51.0277 114.077 51.0277 114.077 51.0277 114.07C51.0277 114.07 51.0277 114.063 51.0344 114.056C51.0344 114.056 51.0479 114.029 51.0614 114.023C51.0614 114.023 51.0682 114.009 51.0749 114.009C51.0884 113.996 51.0951 113.976 51.1086 113.962C51.1086 113.962 51.1086 113.955 51.1153 113.949C51.1153 113.949 51.1491 113.901 51.1626 113.881C51.1895 113.834 51.2232 113.794 51.2502 113.746C51.3042 113.672 51.3513 113.591 51.3985 113.517C49.6522 113.18 47.8991 112.85 46.1528 112.506C47.9059 112.155 49.6656 111.811 51.4254 111.467C51.412 111.447 51.3985 111.434 51.3918 111.413C51.3918 111.413 51.385 111.407 51.3783 111.4C51.3648 111.386 51.358 111.366 51.3445 111.353C51.3445 111.353 51.3446 111.346 51.3379 111.339C50.9198 110.705 50.5017 110.072 50.1039 109.431C50.7849 109.903 51.4592 110.368 52.1334 110.847C52.4503 109.006 52.7672 107.172 53.1111 105.338C53.4684 107.199 53.8056 109.06 54.1292 110.928C54.7158 110.523 55.3024 110.119 55.8957 109.721C55.8823 109.741 55.8688 109.761 55.8553 109.788C55.5317 110.301 55.2081 110.807 54.8709 111.312C54.8709 111.312 54.8709 111.312 54.8709 111.319C54.8709 111.326 54.8642 111.332 54.8575 111.339C54.8575 111.339 54.8439 111.366 54.8305 111.38C54.8305 111.38 54.8237 111.393 54.817 111.393C54.8035 111.413 54.79 111.434 54.7765 111.454C56.5498 111.791 58.3231 112.128 60.0897 112.479L60.1098 112.472Z" fill="#7FF9FF"/>
<path d="M114.899 173.836C113.153 174.186 111.4 174.523 109.654 174.867C109.748 175.002 109.842 175.137 109.93 175.272C110.085 175.508 110.247 175.737 110.402 175.973C110.47 176.081 110.544 176.182 110.611 176.29C110.645 176.337 110.672 176.384 110.706 176.432C110.719 176.452 110.739 176.479 110.753 176.499C110.753 176.499 110.786 176.546 110.8 176.573C110.813 176.593 110.827 176.614 110.84 176.634C110.84 176.634 110.84 176.641 110.847 176.647C110.854 176.661 110.867 176.674 110.874 176.688C110.894 176.722 110.921 176.755 110.948 176.796C110.274 176.351 109.607 175.892 108.939 175.44C108.609 177.342 108.285 179.236 107.941 181.131C107.584 179.263 107.267 177.389 106.93 175.515C106.229 176.027 105.521 176.526 104.806 177.018C105.123 176.519 105.446 176.02 105.77 175.521C105.784 175.501 105.797 175.474 105.817 175.454C105.817 175.454 105.817 175.454 105.817 175.447C105.817 175.447 105.817 175.447 105.817 175.44C105.817 175.44 105.817 175.434 105.824 175.427C105.824 175.427 105.837 175.4 105.851 175.387C105.851 175.387 105.858 175.373 105.864 175.373C105.878 175.353 105.891 175.333 105.905 175.312C105.905 175.312 105.939 175.265 105.952 175.245C105.979 175.198 106.013 175.157 106.04 175.11C106.094 175.036 106.141 174.955 106.188 174.881C104.442 174.544 102.689 174.213 100.942 173.869C102.695 173.519 104.455 173.175 106.215 172.831C106.202 172.811 106.188 172.797 106.181 172.777C106.181 172.777 106.175 172.77 106.168 172.764C106.154 172.75 106.148 172.73 106.134 172.716C106.134 172.716 106.134 172.71 106.127 172.703C105.709 172.069 105.291 171.435 104.893 170.795C105.574 171.267 106.249 171.732 106.923 172.211C107.24 170.37 107.557 168.536 107.901 166.702C108.258 168.563 108.595 170.424 108.919 172.292C109.505 171.887 110.092 171.483 110.685 171.085C110.672 171.105 110.658 171.125 110.645 171.145C110.321 171.658 109.998 172.164 109.661 172.669C109.661 172.669 109.661 172.669 109.661 172.676C109.661 172.676 109.661 172.676 109.661 172.683C109.661 172.683 109.66 172.689 109.654 172.696C109.654 172.696 109.64 172.723 109.627 172.737C109.627 172.737 109.62 172.75 109.613 172.75C109.6 172.77 109.586 172.791 109.573 172.811C111.346 173.148 113.119 173.485 114.886 173.836H114.899Z" fill="#7FF9FF"/>
<path d="M177.423 160.236C175.832 160.56 174.241 160.863 172.649 161.18C172.73 161.301 172.818 161.423 172.906 161.551C173.047 161.767 173.189 161.976 173.33 162.185C173.378 162.259 173.431 162.333 173.479 162.414C173.492 162.434 173.506 162.454 173.519 162.475C173.546 162.522 173.58 162.562 173.607 162.609C173.62 162.63 173.634 162.65 173.647 162.67C173.674 162.711 173.701 162.751 173.728 162.791C173.728 162.791 173.728 162.798 173.735 162.805C173.742 162.818 173.755 162.832 173.762 162.845C173.782 162.879 173.802 162.913 173.829 162.94C173.216 162.535 172.609 162.117 172.002 161.706C171.705 163.432 171.409 165.165 171.099 166.891C170.775 165.192 170.485 163.486 170.182 161.78C169.541 162.245 168.894 162.697 168.246 163.149C168.543 162.67 168.853 162.198 169.164 161.726C169.164 161.726 169.164 161.726 169.164 161.719C169.164 161.719 169.163 161.713 169.17 161.706C169.17 161.706 169.184 161.686 169.19 161.672C169.19 161.672 169.19 161.665 169.197 161.659C169.204 161.645 169.217 161.632 169.224 161.618C169.224 161.618 169.224 161.611 169.231 161.605C169.231 161.605 169.258 161.564 169.271 161.544C169.298 161.504 169.325 161.463 169.352 161.423C169.399 161.355 169.447 161.281 169.487 161.214C167.896 160.91 166.305 160.607 164.713 160.297C166.311 159.973 167.909 159.67 169.514 159.353C169.501 159.333 169.494 159.319 169.48 159.306C169.48 159.306 169.48 159.299 169.474 159.292C169.46 159.279 169.453 159.265 169.447 159.245C169.447 159.245 169.447 159.238 169.44 159.231C169.056 158.658 168.678 158.078 168.321 157.492C168.941 157.917 169.555 158.348 170.168 158.78C170.458 157.107 170.748 155.435 171.058 153.763C171.382 155.456 171.685 157.155 171.989 158.854C172.521 158.483 173.061 158.119 173.6 157.755C173.587 157.775 173.573 157.795 173.566 157.815C173.29 158.26 173 158.699 172.717 159.137C172.703 159.157 172.69 159.177 172.676 159.198C172.676 159.198 172.676 159.198 172.676 159.204C172.676 159.204 172.676 159.204 172.676 159.211C172.676 159.211 172.676 159.218 172.67 159.225C172.67 159.225 172.656 159.245 172.649 159.258C172.649 159.258 172.649 159.265 172.643 159.272C172.643 159.272 172.616 159.306 172.609 159.326C174.22 159.636 175.832 159.939 177.443 160.256L177.423 160.236Z" fill="#7FF9FF"/>
<path d="M260.248 95.3191C258.408 95.5753 256.56 95.8113 254.713 96.0608C254.8 96.2091 254.888 96.3507 254.976 96.499C255.11 96.7283 255.252 96.9642 255.387 97.1935C255.4 97.2137 255.414 97.234 255.421 97.2542C255.488 97.3688 255.556 97.4834 255.623 97.598C255.657 97.652 255.684 97.7059 255.717 97.7599C255.731 97.7868 255.744 97.8071 255.758 97.834C255.771 97.861 255.785 97.888 255.805 97.9082C255.818 97.9284 255.832 97.9487 255.839 97.9689C255.839 97.9689 255.839 97.9824 255.845 97.9824C255.852 97.9958 255.866 98.0161 255.872 98.0296C255.893 98.07 255.92 98.1037 255.94 98.1442C255.266 97.6385 254.598 97.1193 253.931 96.6002C253.465 98.5555 253.007 100.518 252.528 102.466C252.279 100.497 252.063 98.5218 251.834 96.553C251.072 97.0384 250.296 97.5104 249.528 97.9824C249.885 97.4767 250.256 96.9845 250.627 96.4855C250.647 96.4653 250.66 96.4383 250.681 96.4181C250.681 96.4181 250.681 96.4181 250.681 96.4114C250.681 96.4114 250.681 96.4114 250.681 96.4046C250.681 96.4046 250.681 96.3979 250.687 96.3911C250.687 96.3911 250.708 96.3642 250.714 96.3574C250.714 96.3574 250.714 96.3507 250.721 96.3439C250.735 96.3305 250.748 96.3102 250.755 96.2967C250.755 96.2967 250.755 96.29 250.762 96.2833C250.762 96.2833 250.762 96.2832 250.762 96.2765C250.782 96.2495 250.795 96.2293 250.809 96.2091C250.829 96.1889 250.842 96.1619 250.863 96.1349C250.876 96.1147 250.896 96.0945 250.91 96.0742C250.971 96.0001 251.025 95.9192 251.079 95.845C249.278 95.3798 247.478 94.928 245.678 94.456C247.532 94.1998 249.386 93.9638 251.234 93.7144C251.22 93.6941 251.213 93.6739 251.2 93.6537C251.2 93.6537 251.2 93.6402 251.193 93.6402C251.18 93.62 251.173 93.6065 251.159 93.5862C251.159 93.5862 251.159 93.5862 251.159 93.5795C251.159 93.5795 251.159 93.5728 251.153 93.566C250.755 92.8783 250.364 92.1905 249.993 91.4961C250.667 92.0287 251.348 92.5614 252.022 93.1008C252.467 91.2061 252.919 89.3115 253.398 87.4236C253.654 89.3857 253.877 91.3477 254.099 93.3165C254.74 92.9322 255.373 92.5479 256.021 92.1771C256.007 92.1973 255.987 92.2175 255.974 92.2445C255.623 92.7299 255.266 93.2154 254.901 93.7009C254.881 93.7211 254.868 93.7481 254.848 93.7683C254.848 93.7683 254.848 93.7683 254.841 93.775C254.841 93.775 254.841 93.775 254.841 93.7818C254.841 93.7818 254.841 93.7885 254.834 93.7953C254.834 93.7953 254.814 93.8222 254.807 93.8357C254.807 93.8357 254.8 93.8492 254.794 93.8492C254.794 93.8492 254.767 93.8829 254.76 93.8964C254.76 93.8964 254.76 93.9031 254.753 93.9099C256.574 94.3751 258.401 94.8404 260.221 95.3191H260.248Z" fill="#7FF9FF"/>
<path d="M98.0903 103.194C96.6002 103.498 95.1101 103.781 93.6133 104.078C93.6942 104.192 93.7751 104.307 93.8493 104.421C93.8695 104.455 93.8897 104.482 93.9167 104.516C94.0313 104.684 94.1392 104.846 94.2538 105.015C94.3145 105.102 94.3752 105.197 94.4291 105.285C94.4561 105.325 94.483 105.365 94.51 105.406C94.5235 105.426 94.537 105.446 94.5505 105.46C94.5775 105.494 94.5977 105.534 94.6247 105.568C94.6247 105.568 94.6247 105.574 94.6314 105.581C94.6314 105.588 94.6449 105.601 94.6517 105.608C94.6719 105.642 94.6921 105.669 94.7123 105.696C94.1392 105.318 93.5661 104.927 92.9997 104.536C92.7233 106.154 92.4468 107.773 92.1501 109.391C91.8467 107.799 91.5703 106.201 91.2872 104.604C90.6871 105.042 90.0802 105.467 89.4734 105.885C89.7566 105.44 90.0398 104.995 90.3364 104.55C90.3364 104.55 90.3364 104.55 90.3364 104.543C90.3364 104.543 90.3364 104.536 90.3432 104.529C90.3432 104.529 90.3566 104.509 90.3633 104.496C90.3633 104.496 90.3634 104.489 90.3701 104.482C90.3836 104.462 90.3904 104.448 90.4038 104.428C90.4173 104.408 90.4309 104.388 90.4443 104.368C90.4713 104.327 90.4983 104.293 90.5185 104.253C90.559 104.185 90.6061 104.125 90.6466 104.057C89.1565 103.774 87.6664 103.491 86.1763 103.194C87.6731 102.898 89.17 102.601 90.6736 102.311C90.6668 102.298 90.66 102.284 90.6466 102.271C90.6466 102.271 90.6466 102.271 90.6398 102.257C90.6398 102.25 90.6263 102.237 90.6196 102.23C90.6196 102.23 90.6196 102.223 90.6129 102.217C90.6129 102.217 90.6129 102.21 90.6062 102.203C90.2488 101.664 89.8914 101.124 89.5543 100.571C90.1341 100.969 90.714 101.374 91.2872 101.778C91.5569 100.214 91.8333 98.6431 92.1232 97.0789C92.4266 98.6634 92.7098 100.255 92.9929 101.846C93.4919 101.502 93.9976 101.158 94.5033 100.821C94.4898 100.841 94.4831 100.855 94.4696 100.875C94.2066 101.293 93.9369 101.704 93.674 102.116C93.6605 102.136 93.647 102.156 93.6335 102.176C93.6335 102.176 93.6335 102.176 93.6335 102.183C93.6335 102.183 93.6335 102.19 93.6268 102.196C93.6268 102.196 93.6133 102.217 93.6065 102.23C93.6065 102.23 93.6065 102.237 93.5998 102.244C93.5863 102.264 93.5795 102.277 93.566 102.298C95.0764 102.588 96.5868 102.871 98.0971 103.167L98.0903 103.194Z" fill="#7FF9FF"/>
<path d="M184.274 61.2895C183.08 61.5323 181.88 61.7615 180.68 61.9975C180.741 62.0919 180.808 62.1796 180.869 62.274C180.97 62.4223 181.064 62.5639 181.165 62.7122C181.172 62.7257 181.186 62.7392 181.192 62.7527C181.226 62.8066 181.266 62.8606 181.3 62.9212C181.3 62.9212 181.327 62.955 181.334 62.9752C181.354 63.0089 181.374 63.0426 181.401 63.0763C181.408 63.0898 181.422 63.11 181.435 63.1235C181.435 63.1235 181.475 63.1842 181.496 63.2112V63.2179C181.496 63.2247 181.509 63.2381 181.516 63.2449C181.529 63.2719 181.55 63.2921 181.563 63.3191C181.098 63.0156 180.646 62.7055 180.188 62.3886C179.965 63.6899 179.743 64.9912 179.507 66.2858C179.264 65.0047 179.041 63.7236 178.812 62.4425C178.333 62.7931 177.848 63.1303 177.362 63.4741C177.585 63.1168 177.821 62.7594 178.05 62.4021C178.05 62.4021 178.05 62.4021 178.05 62.3953C178.05 62.3953 178.064 62.3751 178.064 62.3684V62.3616C178.064 62.3616 178.084 62.3346 178.091 62.3212C178.091 62.3212 178.111 62.2874 178.124 62.274C178.138 62.2605 178.145 62.2402 178.158 62.2268C178.165 62.2133 178.178 62.1998 178.185 62.1863C178.219 62.1324 178.252 62.0784 178.286 62.0312C177.093 61.802 175.893 61.5727 174.699 61.3435C175.899 61.1008 177.106 60.8715 178.306 60.6355C178.3 60.622 178.293 60.6086 178.279 60.5951C178.279 60.5951 178.279 60.5951 178.279 60.5883C178.273 60.5748 178.266 60.5681 178.259 60.5546C178.259 60.5546 178.259 60.5479 178.253 60.5411C178.253 60.5411 178.232 60.5074 178.219 60.4939C177.942 60.0759 177.666 59.6579 177.403 59.2331C177.868 59.5567 178.333 59.8736 178.792 60.204C179.008 58.9432 179.23 57.689 179.459 56.4349C179.702 57.7093 179.931 58.9836 180.161 60.2647C180.565 59.9883 180.963 59.7118 181.374 59.4421C181.368 59.4556 181.354 59.4691 181.347 59.4826C181.125 59.8332 180.902 60.177 180.673 60.5209C180.673 60.5209 180.673 60.5209 180.673 60.5277C180.666 60.5411 180.66 60.5546 180.646 60.5614C180.639 60.5748 180.633 60.5883 180.619 60.6018C181.833 60.8311 183.046 61.067 184.253 61.303L184.274 61.2895Z" fill="#7FF9FF"/>
<path d="M219.321 62.1188C218.12 62.3009 216.92 62.4694 215.713 62.6448C215.774 62.7392 215.828 62.8335 215.889 62.9279C215.976 63.0763 216.071 63.2246 216.158 63.3797C216.165 63.3932 216.172 63.4067 216.185 63.4201C216.219 63.4741 216.253 63.5348 216.287 63.5887C216.293 63.6022 216.307 63.6224 216.314 63.6359C216.32 63.6494 216.327 63.6629 216.334 63.6764C216.347 63.6966 216.361 63.7168 216.367 63.737C216.374 63.7505 216.388 63.7707 216.394 63.7842C216.415 63.8112 216.428 63.8449 216.448 63.8719C216.448 63.8719 216.448 63.8719 216.448 63.8786C216.448 63.8854 216.462 63.8989 216.469 63.9123C216.482 63.9393 216.496 63.9595 216.516 63.9865C216.071 63.6629 215.632 63.3257 215.194 62.9954C214.904 64.2764 214.621 65.5575 214.324 66.8319C214.149 65.5508 213.994 64.263 213.826 62.9751C213.333 63.2988 212.828 63.6157 212.329 63.9258C212.571 63.582 212.821 63.2381 213.07 62.8942C213.07 62.8942 213.07 62.8942 213.07 62.8875C213.07 62.8875 213.084 62.874 213.091 62.8605C213.091 62.8605 213.091 62.8538 213.097 62.847C213.104 62.8335 213.111 62.8268 213.118 62.8133C213.118 62.8133 213.118 62.8133 213.118 62.8066C213.131 62.7931 213.138 62.7796 213.151 62.7661C213.172 62.7391 213.192 62.7054 213.219 62.6785C213.259 62.6313 213.293 62.5773 213.327 62.5301C212.147 62.2402 210.967 61.957 209.793 61.6671C211 61.485 212.207 61.3165 213.414 61.1412C213.407 61.1277 213.401 61.1209 213.394 61.1075C213.394 61.1075 213.394 61.1007 213.394 61.094C213.394 61.0805 213.381 61.0737 213.374 61.0603C213.374 61.0603 213.374 61.0535 213.374 61.0468C213.374 61.0468 213.354 61.0131 213.347 60.9996C213.091 60.5748 212.841 60.1433 212.598 59.705C213.043 60.0489 213.488 60.3928 213.933 60.7366C214.21 59.496 214.493 58.2554 214.783 57.0215C214.965 58.2958 215.127 59.5769 215.289 60.858C215.7 60.6018 216.118 60.3456 216.536 60.0961C216.529 60.1096 216.516 60.1231 216.509 60.1365C216.287 60.4602 216.051 60.7771 215.821 61.094C215.808 61.1075 215.801 61.1209 215.788 61.1412C215.788 61.1412 215.788 61.1412 215.788 61.1479C215.788 61.1547 215.774 61.1614 215.767 61.1749C215.767 61.1749 215.767 61.1749 215.767 61.1816C215.767 61.1816 215.754 61.2018 215.74 61.2153C215.74 61.2153 215.74 61.2153 215.74 61.2221C216.934 61.512 218.127 61.8019 219.321 62.0986V62.1188Z" fill="#7FF9FF"/>
<path d="M173.377 113.375C171.82 113.686 170.262 113.989 168.705 114.292C168.422 115.924 168.145 117.556 167.848 119.181C167.538 117.556 167.262 115.931 166.972 114.299C165.414 114.003 163.857 113.706 162.299 113.402C163.857 113.092 165.414 112.789 166.979 112.485C167.255 110.887 167.531 109.29 167.828 107.692C168.132 109.283 168.415 110.874 168.698 112.472C170.255 112.769 171.82 113.065 173.377 113.369V113.375Z" fill="#7FF9FF"/>
<path d="M230.723 89.271C229.623 89.4935 228.518 89.7025 227.419 89.9183C227.216 91.0712 227.021 92.2242 226.812 93.3772C226.596 92.231 226.394 91.078 226.192 89.925C225.086 89.716 223.987 89.507 222.888 89.2912C223.987 89.0687 225.093 88.8597 226.198 88.6439C226.394 87.5112 226.589 86.3852 226.798 85.2524C227.014 86.3784 227.216 87.5044 227.412 88.6372C228.518 88.8462 229.617 89.0552 230.723 89.271Z" fill="#7FF9FF"/>
<path d="M51.9781 52.1333C50.8453 52.3558 49.7058 52.5715 48.5731 52.7873C48.3641 53.974 48.1551 55.1606 47.9326 56.3473C47.7168 55.1606 47.5145 53.974 47.3122 52.7873C46.1795 52.5648 45.0468 52.3423 43.9141 52.113C45.0535 51.8905 46.1862 51.6748 47.3257 51.4657C47.5348 50.2993 47.7371 49.1396 47.9596 47.9799C48.1753 49.1396 48.3776 50.2993 48.5731 51.4657C49.7058 51.6882 50.8453 51.9108 51.9781 52.14V52.1333Z" fill="#7FF9FF"/>
<path d="M50.576 63.4877C49.7264 63.6832 48.8769 63.872 48.0273 64.0608C47.8992 64.9575 47.7644 65.861 47.6295 66.7578C47.434 65.8678 47.2586 64.9778 47.0766 64.0877C46.2135 63.9462 45.3573 63.8046 44.501 63.663C45.3505 63.4674 46.2068 63.2786 47.0563 63.0898C47.1844 62.2066 47.3126 61.33 47.4542 60.4468C47.643 61.3166 47.825 62.1864 48.0003 63.0561C48.8633 63.1977 49.7196 63.3393 50.5827 63.4809L50.576 63.4877Z" fill="#7FF9FF"/>
<path d="M12.4062 121.891C10.6733 122.289 8.94054 122.667 7.20097 123.051C6.93127 124.885 6.66833 126.719 6.38515 128.553C5.99408 126.746 5.6367 124.925 5.25912 123.112C3.50606 122.822 1.75306 122.539 0 122.242C1.73283 121.851 3.47239 121.467 5.21196 121.082C5.47491 119.282 5.73785 117.488 6.02777 115.695C6.41884 117.468 6.77621 119.242 7.14031 121.022C8.89336 121.311 10.6531 121.595 12.4062 121.891Z" fill="#7FF9FF"/>
</svg>
