<svg width="157" height="238" viewBox="0 0 157 238" fill="none" xmlns="http://www.w3.org/2000/svg">
<path opacity="0.43" d="M120 176L130.5 173.5L143 156L150 146.5L153 134.5L148.5 123L123.5 124.5L89 127M89 127L59.5 164.5M89 127L82.5 96L42.5 97M59.5 164.5L64.5 230L5 217L37.5 171.5L50.5 168.5L59.5 164.5ZM70.5 8L39 42.5L47.5 40.5L85 14.5M39.5 42.5L38.5 76.5L42.5 96.5L37.5 172" stroke="#7FF9FF" stroke-width="1.5" stroke-linejoin="round"/>
<path d="M62.1662 4.5512C63.8923 5.85251 65.6184 7.14707 67.3445 8.44838C67.1489 8.563 66.9601 8.67762 66.7645 8.79224C66.7308 8.81247 66.6972 8.83271 66.6635 8.85293C66.65 8.85968 66.6297 8.87316 66.6162 8.8799C66.6162 8.8799 66.5825 8.90012 66.5691 8.90687C65.8881 9.31142 65.2003 9.71597 64.5261 10.1407C65.6251 9.96544 66.7241 9.79689 67.8164 9.60136C67.1422 11.941 66.4612 14.2874 65.8207 16.6338C67.2838 14.6448 68.7266 12.6422 70.1695 10.6397C70.682 11.5432 71.1944 12.44 71.7204 13.33C71.7069 13.2491 71.7001 13.1614 71.6866 13.0805C71.6799 13.0131 71.6731 12.9456 71.6596 12.885C71.5517 12.0489 71.4372 11.2128 71.3091 10.3767C73.5139 10.9633 75.7186 11.5634 77.9302 12.1433C76.0895 10.7476 74.2353 9.36536 72.3879 7.9764C72.4351 7.94943 72.489 7.91572 72.5362 7.88875C72.5362 7.88875 72.5564 7.87526 72.5632 7.87526C72.5632 7.87526 72.5767 7.87526 72.5767 7.86852C73.2712 7.45723 73.9589 7.04593 74.6466 6.62115C73.7431 6.74252 72.8328 6.87737 71.9293 7.01222C72.6036 4.67931 73.2644 2.3464 73.9049 0C72.4823 1.91488 71.0798 3.84998 69.6774 5.79182C69.1717 4.86136 68.6525 3.93763 68.1333 3.02065C68.2277 3.98483 68.3491 4.94901 68.4772 5.91319C68.4772 5.96039 68.4907 6.00084 68.4974 6.04129C68.4974 6.04129 68.5042 6.09524 68.5109 6.12221C66.2926 5.52887 64.0811 4.92878 61.8628 4.34892C61.9572 4.42309 62.0583 4.49726 62.1527 4.57143L62.1662 4.5512Z" fill="#7FF9FF"/>
<path d="M95.5013 129.807C93.9506 128.728 92.3998 127.656 90.8422 126.584C90.8827 126.557 90.9231 126.53 90.9703 126.503C90.9703 126.503 90.9838 126.496 90.9905 126.49C90.9905 126.49 90.9973 126.49 91.004 126.483C91.5637 126.119 92.1233 125.755 92.6762 125.384C92.6964 125.37 92.7234 125.35 92.7436 125.337C91.9682 125.472 91.1928 125.62 90.4174 125.768C90.9164 123.732 91.4153 121.696 91.8805 119.653C90.7141 121.359 89.5746 123.071 88.4284 124.791C87.9564 124.008 87.4777 123.226 87.0057 122.451C87.1203 123.28 87.2552 124.11 87.4036 124.932C87.4036 124.973 87.417 125.006 87.4237 125.047C87.4237 125.047 87.4305 125.094 87.4372 125.121C85.5021 124.683 83.5738 124.244 81.6387 123.813C83.2569 124.939 84.8751 126.058 86.5 127.177C86.3382 127.285 86.1764 127.386 86.0146 127.494C86.0146 127.494 85.9606 127.528 85.9269 127.548C85.9134 127.555 85.9 127.568 85.8865 127.575C85.8865 127.575 85.873 127.582 85.8662 127.589C85.8662 127.589 85.8527 127.589 85.8527 127.595C85.2796 127.966 84.6997 128.344 84.1334 128.728C85.0773 128.539 86.0146 128.357 86.9518 128.155C86.4528 130.198 85.9404 132.241 85.4685 134.291C86.6619 132.524 87.835 130.744 89.0217 128.971C89.4937 129.733 89.9657 130.488 90.4511 131.243C90.4376 131.169 90.4242 131.102 90.4107 131.027C90.404 130.973 90.3904 130.913 90.3837 130.859C90.3702 130.764 90.35 130.67 90.3365 130.576C90.2287 129.949 90.1208 129.328 89.9994 128.708C91.921 129.139 93.8494 129.584 95.771 130.002C95.6833 129.942 95.5957 129.881 95.508 129.82L95.5013 129.807Z" fill="#7FF9FF"/>
<path d="M51.6616 100.012C51.9043 100.066 52.1403 100.113 52.383 100.167C50.2996 98.697 48.2094 97.2406 46.1192 95.7842C46.1731 95.7505 46.2271 95.71 46.2811 95.6763C46.2811 95.6763 46.3013 95.6628 46.308 95.6561C46.308 95.6561 46.3215 95.6494 46.3282 95.6426C47.0497 95.1639 47.7779 94.6784 48.4858 94.1795C48.5128 94.1593 48.5465 94.139 48.5735 94.1188C47.5756 94.3076 46.5777 94.5099 45.5798 94.7121C46.2473 92.0421 46.9149 89.3788 47.5419 86.702C46.0249 88.9473 44.5347 91.206 43.0514 93.4648C42.458 92.4467 41.8579 91.4353 41.2579 90.4239C41.3927 91.5094 41.5613 92.5883 41.7299 93.6671C41.7366 93.7143 41.7433 93.7682 41.75 93.8154C41.75 93.8154 41.7568 93.8761 41.7635 93.9098C39.2958 93.3636 36.8213 92.8175 34.3535 92.2848C36.41 93.7345 38.4732 95.1706 40.5364 96.6135C40.3274 96.7551 40.1184 96.89 39.9093 97.0316C39.8756 97.0585 39.8352 97.0788 39.8014 97.1057C39.7812 97.1192 39.7678 97.126 39.7475 97.1395C39.7475 97.1395 39.7273 97.1529 39.7205 97.1597C39.7205 97.1597 39.7071 97.1664 39.7004 97.1732C38.9587 97.6654 38.217 98.1643 37.4821 98.6768C38.689 98.4205 39.9026 98.1643 41.1095 97.8879C40.442 100.565 39.761 103.241 39.1204 105.932C40.678 103.606 42.2086 101.266 43.7459 98.933C44.3392 99.9174 44.9325 100.909 45.5461 101.879C45.5326 101.785 45.5124 101.691 45.4989 101.596C45.4989 101.596 45.4989 101.596 45.4989 101.59C45.4854 101.515 45.4787 101.441 45.4652 101.367C45.4584 101.327 45.4517 101.286 45.4449 101.246C45.3033 100.349 45.1618 99.4521 45 98.5554C47.2183 99.0409 49.4366 99.5398 51.6616 100.019V100.012Z" fill="#7FF9FF"/>
<path d="M72.3606 232.529C70.7019 231.376 69.0433 230.23 67.3846 229.084C67.4318 229.057 67.4723 229.023 67.5195 228.996C67.5195 228.996 67.5329 228.983 67.5397 228.983C67.5397 228.983 67.5532 228.983 67.5532 228.969C68.1532 228.585 68.7533 228.194 69.3399 227.789C69.3669 227.776 69.3871 227.756 69.4141 227.742C68.5848 227.884 67.7555 228.046 66.9261 228.201C67.4588 226.023 67.9914 223.852 68.4904 221.667C67.243 223.488 66.0226 225.322 64.8022 227.156C64.2965 226.319 63.7909 225.483 63.2784 224.654C63.3998 225.544 63.5481 226.427 63.7032 227.311C63.7099 227.351 63.7167 227.392 63.7234 227.432C63.7234 227.432 63.7301 227.486 63.7369 227.506C61.6737 227.041 59.6105 226.569 57.5405 226.11C59.2666 227.317 60.9994 228.511 62.7322 229.704C62.5569 229.819 62.3884 229.927 62.213 230.041C62.213 230.041 62.1524 230.082 62.1255 230.102C62.112 230.109 62.0985 230.122 62.085 230.129C62.085 230.129 62.058 230.149 62.0445 230.156C61.4309 230.554 60.8174 230.952 60.2105 231.363C61.2152 231.167 62.2198 230.965 63.2244 230.749C62.6918 232.934 62.1456 235.112 61.64 237.303C62.9143 235.415 64.1751 233.514 65.436 231.619C65.9417 232.428 66.4406 233.244 66.9598 234.046C66.9463 233.972 66.9329 233.891 66.9194 233.817C66.9059 233.756 66.8991 233.696 66.8857 233.635C66.8857 233.635 66.8721 233.568 66.8654 233.534C66.7373 232.799 66.6092 232.064 66.4744 231.329C68.5308 231.794 70.5873 232.266 72.6438 232.718C72.5494 232.651 72.455 232.59 72.3606 232.523V232.529Z" fill="#7FF9FF"/>
<path d="M45.9505 174.914C44.1031 173.627 42.2556 172.352 40.4014 171.078C40.4486 171.044 40.5026 171.011 40.5498 170.984C40.5498 170.984 40.5767 170.963 40.5902 170.957C41.2577 170.525 41.9252 170.087 42.586 169.642C42.613 169.622 42.6399 169.608 42.6669 169.588C41.7432 169.75 40.8195 169.925 39.8957 170.1C40.4891 167.673 41.0825 165.252 41.6421 162.818C40.2531 164.848 38.8911 166.891 37.5359 168.941C36.9762 168.01 36.4098 167.08 35.8367 166.149C35.9716 167.14 36.1402 168.125 36.3087 169.109C36.3222 169.183 36.3357 169.257 36.3492 169.332C34.05 168.812 31.7508 168.287 29.4448 167.774C31.3664 169.116 33.3016 170.444 35.23 171.779C35.0344 171.907 34.8456 172.029 34.6501 172.157C34.6164 172.177 34.5827 172.197 34.549 172.224C34.5355 172.238 34.5152 172.244 34.5017 172.258C34.5017 172.258 34.468 172.278 34.4546 172.285C33.7668 172.73 33.0858 173.175 32.4048 173.633C33.5241 173.411 34.65 173.188 35.7626 172.946C35.1692 175.38 34.5624 177.814 33.996 180.255C35.4187 178.151 36.8212 176.034 38.2236 173.923C38.7832 174.827 39.3496 175.73 39.9227 176.627C39.9092 176.539 39.8891 176.458 39.8756 176.371C39.8621 176.303 39.8553 176.236 39.8418 176.169C39.6935 175.312 39.5451 174.456 39.3833 173.606C41.6758 174.119 43.9683 174.645 46.2607 175.15C46.1596 175.076 46.0516 175.002 45.9505 174.935V174.914Z" fill="#7FF9FF"/>
<path d="M78.2468 93.9368C79.42 94.7527 80.5932 95.5618 81.7664 96.3709C81.3955 97.8879 81.018 99.3983 80.6674 100.922C81.5439 99.6275 82.407 98.3262 83.27 97.0249C84.7331 97.3553 86.1895 97.6924 87.6526 98.0093C86.4255 97.153 85.1916 96.3034 83.9577 95.4539C84.3218 93.9705 84.6859 92.4872 85.0298 90.9971C84.1667 92.2579 83.3172 93.5323 82.4743 94.8133C81.0112 94.483 79.5481 94.1458 78.085 93.8222C78.1456 93.8626 78.1996 93.9031 78.2603 93.9435L78.2468 93.9368Z" fill="#7FF9FF"/>
<path d="M9.81032 218.91C8.58318 218.06 7.36282 217.21 6.13568 216.368C6.51326 214.817 6.89761 213.266 7.25496 211.708C6.35146 213.03 5.46814 214.358 4.58487 215.693C3.05431 215.349 1.53055 214.999 0 214.662C1.28108 215.558 2.56888 216.442 3.8567 217.332C3.47238 218.916 3.0746 220.494 2.70376 222.085C3.62074 220.737 4.51743 219.375 5.42093 218.013C6.94474 218.357 8.47532 218.707 9.99913 219.044C9.93845 219.004 9.87775 218.957 9.81032 218.916V218.91Z" fill="#7FF9FF"/>
<path d="M64.7621 166.419C63.4405 165.502 62.119 164.592 60.7975 163.675C61.2088 162.003 61.6201 160.33 62.0044 158.651C61.0335 160.074 60.076 161.51 59.1253 162.946C57.4802 162.576 55.8283 162.198 54.1831 161.834C55.5653 162.798 56.9542 163.756 58.3432 164.713C57.9252 166.419 57.5004 168.125 57.1026 169.837C58.087 168.381 59.0579 166.911 60.0288 165.448C61.674 165.819 63.3192 166.196 64.9644 166.56C64.897 166.513 64.8295 166.466 64.7621 166.419Z" fill="#7FF9FF"/>
<path d="M128.007 126.753C126.834 125.876 125.661 125 124.488 124.13C124.912 122.62 125.344 121.109 125.742 119.599C124.811 120.866 123.894 122.141 122.984 123.415C121.494 123.024 120.011 122.626 118.521 122.242C119.748 123.166 120.982 124.083 122.215 125C121.784 126.544 121.339 128.081 120.921 129.625C121.865 128.33 122.795 127.022 123.726 125.721C125.209 126.112 126.699 126.51 128.183 126.888C128.122 126.84 128.061 126.8 128.007 126.753Z" fill="#7FF9FF"/>
<path d="M45.5258 44.9255C43.9346 43.8197 42.3434 42.7274 40.7454 41.6284C41.2376 39.6124 41.7298 37.5963 42.1883 35.5803C41.0151 37.2929 39.8689 39.0257 38.7227 40.7586C36.7404 40.3136 34.7513 39.8618 32.769 39.4236C34.4344 40.5833 36.1133 41.7362 37.7854 42.8892C37.2865 44.9457 36.7741 47.0021 36.2954 49.0586C37.4821 47.3056 38.6485 45.5323 39.8149 43.7657C41.7972 44.2107 43.7796 44.6625 45.7619 45.1008C45.681 45.0468 45.6001 44.9861 45.5192 44.9322L45.5258 44.9255Z" fill="#7FF9FF"/>
<path d="M54.345 170.734C53.2392 169.885 52.1267 169.035 51.0209 168.185C51.4457 166.749 51.8704 165.313 52.275 163.877C51.3715 165.07 50.4815 166.277 49.5915 167.484C48.1756 167.093 46.7597 166.695 45.3438 166.311C46.5035 167.208 47.6699 168.098 48.8363 168.981C48.4048 170.444 47.9599 171.907 47.5418 173.377C48.4588 172.15 49.3622 170.916 50.2657 169.689C51.6749 170.08 53.0909 170.478 54.5068 170.862C54.4529 170.822 54.3922 170.775 54.3383 170.734H54.345Z" fill="#7FF9FF"/>
<path d="M148.734 123.476C149.914 123.732 151.094 123.988 152.274 124.231C151.276 123.55 150.278 122.876 149.273 122.201C149.556 121.001 149.833 119.808 150.096 118.601C149.408 119.626 148.741 120.657 148.073 121.696C146.893 121.44 145.713 121.19 144.533 120.941C145.531 121.622 146.529 122.289 147.527 122.963C147.244 124.184 146.954 125.411 146.677 126.638C147.372 125.586 148.053 124.534 148.734 123.476Z" fill="#7FF9FF"/>
<path d="M149.839 132.47C150.716 133.091 151.585 133.711 152.462 134.331C152.172 135.471 151.875 136.603 151.592 137.743C152.26 136.779 152.92 135.808 153.581 134.837C154.673 135.1 155.772 135.363 156.865 135.612C155.948 134.958 155.031 134.304 154.107 133.657C154.39 132.565 154.667 131.472 154.936 130.38C154.936 130.38 154.95 130.34 154.95 130.319C154.289 131.263 153.642 132.214 152.994 133.165C151.895 132.902 150.803 132.639 149.704 132.383C149.745 132.416 149.792 132.443 149.832 132.477L149.839 132.47Z" fill="#7FF9FF"/>
<path d="M40.8803 78.247C41.4736 78.3751 42.0669 78.51 42.667 78.6381C41.6219 77.9166 40.5701 77.2019 39.5183 76.4805C39.8217 75.2196 40.1251 73.9588 40.4083 72.6912C39.6801 73.77 38.9654 74.8488 38.2574 75.9343C37.0168 75.6579 35.7762 75.3814 34.5288 75.1117C35.5739 75.8332 36.6258 76.5479 37.6708 77.2626C37.3607 78.5504 37.0505 79.8382 36.7539 81.1261C37.4888 80.027 38.217 78.9145 38.9452 77.8087C39.5925 77.9503 40.233 78.0919 40.8803 78.2403V78.247Z" fill="#7FF9FF"/>
<path d="M81.4972 12.831C82.4074 13.4445 83.3176 14.0514 84.2279 14.6582C83.9582 15.8246 83.6885 16.9911 83.4323 18.1643C84.0863 17.1597 84.7336 16.1483 85.3809 15.1436C86.5069 15.3796 87.6329 15.6224 88.7589 15.8516C87.8082 15.2111 86.8508 14.5705 85.8933 13.93C86.1563 12.7838 86.4192 11.6443 86.6619 10.498C86.0146 11.4757 85.3809 12.4669 84.7403 13.458C83.6143 13.222 82.4883 12.9793 81.3623 12.7501C81.4095 12.7838 81.45 12.8107 81.4972 12.8445V12.831Z" fill="#7FF9FF"/>
<path d="M49.47 41.8644C49.47 41.8644 49.4902 41.8644 49.5037 41.8644C48.8564 41.4193 48.2159 40.9743 47.5686 40.5361C47.7911 39.7 48.0136 38.8639 48.2226 38.0211C47.7371 38.7493 47.2585 39.4842 46.7797 40.2124C46.0044 40.0641 45.2222 39.9158 44.4468 39.7742C45.0873 40.2192 45.7346 40.6574 46.3819 41.1024C46.1526 41.9587 45.9234 42.8083 45.7076 43.6646C46.1998 42.9229 46.6853 42.1678 47.1775 41.4193C47.9462 41.5609 48.7081 41.7093 49.4768 41.8509L49.47 41.8644Z" fill="#7FF9FF"/>
<path d="M146.131 158.105C145.241 157.458 144.351 156.811 143.454 156.164C143.764 155.024 144.068 153.885 144.358 152.738C143.67 153.703 142.989 154.667 142.315 155.638C141.189 155.354 140.069 155.071 138.943 154.795C139.881 155.476 140.818 156.157 141.755 156.838C141.445 158.004 141.121 159.164 140.825 160.33C141.526 159.346 142.213 158.355 142.901 157.364C144.02 157.647 145.146 157.93 146.272 158.207C146.225 158.173 146.185 158.139 146.138 158.105H146.131Z" fill="#7FF9FF"/>
<path d="M133.178 174.759C132.443 174.22 131.702 173.687 130.96 173.148C131.216 172.204 131.472 171.26 131.708 170.309C131.135 171.105 130.576 171.907 130.016 172.716C129.085 172.48 128.155 172.244 127.218 172.015C127.993 172.582 128.769 173.141 129.544 173.708C129.288 174.672 129.018 175.636 128.769 176.607C129.348 175.791 129.922 174.968 130.495 174.146C131.425 174.382 132.356 174.611 133.286 174.84C133.246 174.813 133.212 174.786 133.171 174.759H133.178Z" fill="#7FF9FF"/>
<path d="M123.746 177.524C122.802 176.836 121.858 176.148 120.914 175.461C121.245 174.254 121.568 173.047 121.878 171.833C121.143 172.851 120.429 173.876 119.707 174.901C118.521 174.598 117.327 174.301 116.134 174.004C117.125 174.732 118.116 175.447 119.107 176.169C118.777 177.402 118.433 178.63 118.116 179.87C118.858 178.832 119.586 177.78 120.321 176.728C121.508 177.025 122.694 177.328 123.888 177.618C123.84 177.584 123.793 177.551 123.746 177.51V177.524Z" fill="#7FF9FF"/>
<path d="M152.367 148.315C151.68 147.81 150.992 147.304 150.304 146.798C150.54 145.949 150.776 145.099 150.999 144.25C150.479 144.964 149.967 145.679 149.461 146.4C148.625 146.185 147.789 145.969 146.953 145.753C147.648 146.266 148.342 146.778 149.037 147.29C148.801 148.153 148.551 149.023 148.322 149.893C148.848 149.165 149.367 148.43 149.886 147.695C150.722 147.911 151.558 148.126 152.394 148.335C152.388 148.335 152.381 148.322 152.374 148.315H152.367Z" fill="#7FF9FF"/>
</svg>
