<svg width="172" height="172" viewBox="0 0 172 172" fill="none" xmlns="http://www.w3.org/2000/svg">
<path opacity="0.43" d="M165 42L73.5 6.5L25.5 10L9 35.5L8 82.5L20.5 118L55 166.5" stroke="#7FF9FF" stroke-width="1.5" stroke-linejoin="round"/>
<path d="M0.775776 36.153C2.76482 36.5576 4.7606 36.9487 6.74964 37.3465C6.68896 37.4409 6.6283 37.5352 6.56762 37.6296C6.53391 37.6836 6.49343 37.7375 6.45972 37.7982C6.43949 37.8252 6.42603 37.8521 6.40581 37.8859C6.40581 37.8859 6.37209 37.9331 6.3586 37.9601C6.3586 37.9601 6.35185 37.9735 6.34511 37.9803C6.33836 37.9937 6.32489 38.0072 6.31815 38.0275C6.31815 38.0275 6.31814 38.041 6.3114 38.041C6.3114 38.041 6.3114 38.0409 6.3114 38.0477C6.3114 38.0477 6.31139 38.0477 6.30465 38.0544C5.89336 38.695 5.48207 39.3422 5.09101 39.9895C5.94731 39.3759 6.80359 38.7624 7.64641 38.1286C8.04422 40.448 8.42856 42.7742 8.8466 45.0869C9.26463 42.7405 9.65569 40.3874 10.0602 38.0342C10.8626 38.6006 11.665 39.167 12.4741 39.7198C12.4336 39.6592 12.3932 39.5917 12.3527 39.531C12.3527 39.531 12.346 39.5176 12.3392 39.5108C12.3055 39.4569 12.2718 39.403 12.2381 39.349C12.2381 39.349 12.1976 39.2883 12.1842 39.2614C12.1437 39.2007 12.11 39.14 12.0695 39.0793C11.9886 38.9512 11.9009 38.8163 11.82 38.6882C11.6312 38.3983 11.4425 38.1084 11.2537 37.8184C11.1458 37.6499 11.0311 37.4813 10.9233 37.3128C13.0269 36.888 15.1374 36.4767 17.241 36.0452C15.1104 35.6136 12.9797 35.1888 10.8491 34.7641C10.8626 34.7371 10.8828 34.7169 10.8963 34.6899C10.8963 34.6899 10.9031 34.6764 10.9098 34.6697C10.9165 34.6562 10.93 34.636 10.9368 34.6225C10.9368 34.6225 10.9368 34.6157 10.9503 34.609C10.9503 34.609 10.9503 34.609 10.9503 34.6023C10.9503 34.6023 10.9503 34.6022 10.957 34.5955C11.3548 33.9752 11.7526 33.3481 12.1437 32.7144C12.1571 32.6874 12.1774 32.6604 12.1909 32.6334C11.4762 33.1189 10.7682 33.6246 10.0602 34.1236C9.66918 31.8109 9.27137 29.4982 8.8466 27.199C8.42856 29.4712 8.04422 31.7434 7.65316 34.0224C6.84405 33.4291 6.02821 32.8492 5.21237 32.2626C5.69109 33.065 6.19003 33.8471 6.68898 34.6292C6.68898 34.6292 6.70248 34.6495 6.70248 34.6562C6.71596 34.6764 6.72945 34.6966 6.74293 34.7169C6.74293 34.7236 6.74965 34.7304 6.75639 34.7371C6.75639 34.7371 6.78336 34.7843 6.79684 34.8045C4.67969 35.2293 2.56256 35.6406 0.452148 36.0721C0.566771 36.0923 0.674652 36.1193 0.789275 36.1396L0.775776 36.153Z" fill="#7FF9FF"/>
<path d="M14.7256 82.5011C14.9144 82.4606 15.1032 82.427 15.2853 82.3865C13.3502 82.0022 11.4083 81.6313 9.47323 81.2537C9.48672 81.2335 9.5002 81.2133 9.51369 81.1863C9.51369 81.1863 9.52044 81.1728 9.52719 81.1661C9.53393 81.1526 9.5474 81.1392 9.55414 81.1257C9.55414 81.1257 9.55415 81.1189 9.56089 81.1122C9.56089 81.1122 9.56089 81.1122 9.56089 81.1054C9.56089 81.1054 9.56089 81.1054 9.56089 81.0987C9.92499 80.5458 10.2891 79.9929 10.6397 79.4333C10.6532 79.4131 10.6666 79.386 10.6801 79.3658C10.0261 79.7973 9.38556 80.2356 8.73828 80.6807C8.38093 78.6377 8.02361 76.5947 7.63254 74.5585C7.25496 76.561 6.89757 78.577 6.54696 80.5862C5.81203 80.0671 5.07036 79.5479 4.32869 79.0354C4.76021 79.7434 5.21869 80.438 5.67044 81.1324C5.67044 81.1324 5.6772 81.1459 5.68394 81.1526C5.69743 81.1728 5.7109 81.1864 5.71765 81.2066C5.71765 81.2066 5.7244 81.22 5.73114 81.2268C5.73114 81.2268 5.75811 81.2673 5.7716 81.2875C3.84998 81.6583 1.92162 82.0291 0 82.4067C1.90813 82.7843 3.82298 83.1551 5.73785 83.526C5.68391 83.6069 5.62997 83.6945 5.56929 83.7754C5.53558 83.8226 5.50189 83.8766 5.47492 83.9238C5.46144 83.9507 5.4412 83.971 5.42097 84.0047C5.42097 84.0047 5.394 84.0452 5.38052 84.0722C5.38052 84.0722 5.37376 84.0856 5.36702 84.0923C5.36028 84.1058 5.34681 84.1193 5.34007 84.1328C5.34007 84.1328 5.34006 84.1396 5.33332 84.1463C5.33332 84.1463 5.33332 84.1463 5.33332 84.1531C5.33332 84.1531 5.33332 84.1531 5.33332 84.1598C4.95574 84.7262 4.58489 85.2925 4.22753 85.8656C5.00967 85.3195 5.78506 84.7801 6.55371 84.2205C6.91106 86.2702 7.26167 88.3199 7.646 90.3697C8.03032 88.293 8.38768 86.2163 8.74503 84.1396C9.47322 84.6385 10.2014 85.1442 10.9431 85.6296C10.9094 85.5757 10.8689 85.5218 10.8352 85.4678C10.8352 85.4678 10.8285 85.4543 10.8217 85.4543C10.788 85.4071 10.761 85.36 10.7273 85.3128C10.7273 85.3128 10.6936 85.2588 10.6734 85.2386C10.6397 85.1847 10.606 85.1307 10.5655 85.0768C10.5453 85.0498 10.5318 85.0229 10.5116 84.9959C10.4509 84.9082 10.3969 84.8206 10.3363 84.7329C10.1677 84.4767 9.99242 84.2205 9.82386 83.9643C9.72272 83.8159 9.62158 83.6676 9.52044 83.5192C11.2465 83.1821 12.9794 82.8517 14.7054 82.5078L14.7256 82.5011Z" fill="#7FF9FF"/>
<path d="M31.9865 10.2347C30.5099 9.94479 29.04 9.66164 27.5634 9.37845C27.5769 9.35822 27.5836 9.34473 27.5971 9.3245C27.5971 9.3245 27.5971 9.31774 27.6039 9.311C27.6039 9.29752 27.6173 9.29078 27.6241 9.2773C27.6241 9.2773 27.6241 9.27054 27.6308 9.2638C27.6308 9.2638 27.6308 9.26383 27.6308 9.25709C27.9275 8.81208 28.2174 8.36705 28.5006 7.92204C28.5141 7.90181 28.5209 7.88162 28.5343 7.86813C28.0084 8.212 27.496 8.56932 26.9768 8.92667C26.6936 7.2815 26.4037 5.64307 26.0868 4.00464C25.7834 5.6161 25.5002 7.23431 25.217 8.85251C24.6237 8.43448 24.0303 8.01646 23.4302 7.60516C23.7809 8.17154 24.1449 8.73116 24.509 9.29079C24.509 9.29079 24.5158 9.30426 24.5225 9.311C24.5293 9.32449 24.5427 9.33797 24.5495 9.35145C24.5495 9.35145 24.5495 9.35821 24.5562 9.36495C24.5562 9.36495 24.5765 9.39192 24.5832 9.40541C23.0392 9.70208 21.4884 9.99877 19.9443 10.3089C21.4816 10.6123 23.0189 10.909 24.5562 11.2056C24.509 11.2731 24.4686 11.3405 24.4214 11.408C24.3944 11.4484 24.3674 11.4889 24.3405 11.5293C24.327 11.5495 24.3135 11.5697 24.3 11.59C24.3 11.59 24.2798 11.6237 24.2663 11.6439C24.2663 11.6439 24.2663 11.6507 24.2596 11.6574C24.2528 11.6709 24.2461 11.6776 24.2393 11.6911C24.2393 11.6911 24.2394 11.6979 24.2326 11.7046C24.2326 11.7046 24.2326 11.7046 24.2326 11.7113C23.9292 12.1631 23.6325 12.6216 23.3426 13.0868C23.9696 12.6486 24.5967 12.217 25.217 11.7653C25.5069 13.4105 25.7901 15.0624 26.0935 16.7076C26.3969 15.0422 26.6869 13.37 26.9768 11.6979C27.5634 12.1024 28.15 12.5002 28.7434 12.898C28.7164 12.8576 28.6827 12.8104 28.6557 12.7632C28.6557 12.7632 28.6557 12.7565 28.649 12.7497C28.622 12.7093 28.6018 12.6755 28.5748 12.6351C28.5748 12.6351 28.5478 12.5946 28.5343 12.5744C28.5074 12.5339 28.4804 12.4867 28.4534 12.4463C28.3927 12.3519 28.3321 12.2575 28.2714 12.1699C28.1365 11.9608 27.9949 11.7585 27.8601 11.5495C27.7792 11.4282 27.6982 11.3136 27.6173 11.1922C29.1546 10.8955 30.6987 10.5988 32.236 10.2887C32.1551 10.2752 32.0674 10.255 31.9865 10.2415V10.2347Z" fill="#7FF9FF"/>
<path d="M78.4628 6.16904C77.2222 5.92631 75.9816 5.68358 74.7342 5.44759C74.7409 5.4341 74.7544 5.42061 74.7612 5.40038C74.7612 5.40038 74.7612 5.39363 74.7679 5.38689C74.7679 5.38014 74.7814 5.36667 74.7881 5.35993C74.7881 5.35993 74.7881 5.35992 74.7881 5.35318C75.0376 4.98234 75.2804 4.60477 75.5164 4.22719C75.5231 4.21371 75.5366 4.19347 75.5433 4.17999C75.105 4.46992 74.6668 4.77334 74.2285 5.07001C73.9858 3.68779 73.7431 2.30556 73.4801 0.92334C73.2239 2.27859 72.9811 3.64061 72.7451 5.0026C72.2462 4.65199 71.7405 4.30138 71.2416 3.95077C71.5382 4.42949 71.8416 4.90145 72.1518 5.36668C72.1518 5.36668 72.1518 5.37344 72.1585 5.38018C72.1653 5.39366 72.1721 5.40714 72.1855 5.41388C72.1855 5.41388 72.1856 5.42064 72.1923 5.42738C72.1923 5.42738 72.2125 5.45435 72.2192 5.46783C70.9179 5.71731 69.6099 5.96674 68.3086 6.2297C69.6032 6.48592 70.8977 6.73543 72.1923 6.9849C72.1518 7.03884 72.1181 7.09952 72.0776 7.15346C72.0574 7.18718 72.0305 7.22087 72.0102 7.25458C71.9967 7.26806 71.99 7.2883 71.9765 7.30853C71.9765 7.30853 71.9563 7.3355 71.9495 7.35573C71.9495 7.35573 71.9495 7.36245 71.9428 7.36919C71.9428 7.37593 71.9293 7.38944 71.9226 7.39619C71.9226 7.39619 71.9226 7.39619 71.9226 7.40294C71.6664 7.78726 71.4169 8.17156 71.1742 8.56263C71.7001 8.19853 72.2327 7.82772 72.7519 7.45014C72.9946 8.8391 73.2306 10.2281 73.4936 11.617C73.7498 10.2146 73.9925 8.80537 74.242 7.39619C74.7342 7.73331 75.2264 8.07718 75.7321 8.40756C75.7051 8.37385 75.6849 8.33337 75.6579 8.29966C75.6579 8.29966 75.6579 8.29295 75.6512 8.2862C75.6309 8.25249 75.6107 8.21877 75.5905 8.1918C75.5905 8.1918 75.5703 8.15807 75.5568 8.13785C75.5298 8.10413 75.5096 8.0637 75.4826 8.02998C75.4691 8.00976 75.4556 7.98952 75.4489 7.97603C75.4084 7.91535 75.368 7.85465 75.3275 7.79397C75.2129 7.61867 75.0983 7.45013 74.9769 7.27483C74.9095 7.17369 74.8421 7.07254 74.7746 6.9714C76.0692 6.72193 77.3705 6.47246 78.6651 6.21624C78.5977 6.20276 78.5235 6.18928 78.4561 6.17579L78.4628 6.16904Z" fill="#7FF9FF"/>
<path d="M146.704 109.795C145.538 109.566 144.371 109.343 143.212 109.114C142.996 107.86 142.773 106.606 142.537 105.358C142.301 106.612 142.079 107.866 141.863 109.121C140.636 109.357 139.409 109.593 138.188 109.835C139.409 110.078 140.636 110.314 141.856 110.55C142.079 111.831 142.295 113.112 142.537 114.387C142.773 113.105 142.989 111.824 143.218 110.543C144.439 110.307 145.666 110.071 146.886 109.829C146.826 109.815 146.765 109.808 146.711 109.795H146.704Z" fill="#7FF9FF"/>
<path d="M171.517 41.6954C169.791 41.3516 168.064 41.0212 166.345 40.6908C166.035 38.904 165.718 37.1173 165.381 35.344C165.044 37.1308 164.734 38.9175 164.424 40.7043C162.677 41.0414 160.931 41.3785 159.185 41.7224C160.924 42.0663 162.67 42.4034 164.41 42.7405C164.734 44.561 165.037 46.3882 165.381 48.2019C165.718 46.3815 166.028 44.5543 166.345 42.7338C168.085 42.3966 169.831 42.0663 171.571 41.7156C171.55 41.7156 171.53 41.7089 171.51 41.7022L171.517 41.6954Z" fill="#7FF9FF"/>
<path d="M26.6668 117.906C24.9002 117.616 23.1337 117.333 21.3671 117.043C20.9828 115.162 20.5917 113.288 20.1737 111.413C19.877 113.308 19.6006 115.209 19.3309 117.111C17.4969 117.522 15.6562 117.933 13.8223 118.358C15.6765 118.668 17.5307 118.965 19.3848 119.261C19.7827 121.176 20.167 123.098 20.585 125.006C20.8817 123.071 21.1514 121.129 21.4278 119.187C23.2618 118.776 25.0958 118.365 26.923 117.94C26.8353 117.926 26.7409 117.913 26.6533 117.893L26.6668 117.906Z" fill="#7FF9FF"/>
<path d="M60.0693 164.659C58.4511 164.342 56.8261 164.025 55.2079 163.715C54.9045 161.969 54.6011 160.229 54.2707 158.489C53.9403 160.229 53.6369 161.975 53.3335 163.722C51.6276 164.052 49.9218 164.376 48.2227 164.713C49.9218 165.05 51.6276 165.373 53.3267 165.704C53.6369 167.484 53.9403 169.264 54.2707 171.037C54.5944 169.257 54.9045 167.477 55.2146 165.697C56.9138 165.367 58.6196 165.043 60.3187 164.706C60.2378 164.692 60.1569 164.672 60.0693 164.659Z" fill="#7FF9FF"/>
</svg>
