<svg width="241" height="241" viewBox="0 0 241 241" fill="none" xmlns="http://www.w3.org/2000/svg">
<path fill-rule="evenodd" clip-rule="evenodd" d="M120.504 55.9544C84.857 55.9544 55.959 84.8524 55.959 120.5C55.959 156.147 84.857 185.045 120.504 185.045C156.152 185.045 185.05 156.147 185.05 120.5C185.05 84.8524 156.152 55.9544 120.504 55.9544Z" fill="#FDCE86"/>
<path fill-rule="evenodd" clip-rule="evenodd" d="M110.5 65.9547V20.5001H130.5V65.9547H110.5Z" fill="#FDCE86"/>
<path fill-rule="evenodd" clip-rule="evenodd" d="M110.5 220.5V175.046H130.5V220.5H110.5Z" fill="#FDCE86"/>
<path fill-rule="evenodd" clip-rule="evenodd" d="M74.858 89.0033L42.7168 56.8621L56.8589 42.72L89.0002 74.8612L74.858 89.0033Z" fill="#FDCE86"/>
<path fill-rule="evenodd" clip-rule="evenodd" d="M184.14 198.281L151.999 166.139L166.141 151.997L198.282 184.139L184.14 198.281Z" fill="#FDCE86"/>
<path fill-rule="evenodd" clip-rule="evenodd" d="M166.137 89.0033L198.278 56.8621L184.136 42.72L151.995 74.8612L166.137 89.0033Z" fill="#FDCE86"/>
<path fill-rule="evenodd" clip-rule="evenodd" d="M56.8598 198.281L89.001 166.139L74.8588 151.997L42.7176 184.139L56.8598 198.281Z" fill="#FDCE86"/>
<path fill-rule="evenodd" clip-rule="evenodd" d="M65.9545 130.5H20.5V110.5H65.9545V130.5Z" fill="#FDCE86"/>
<path fill-rule="evenodd" clip-rule="evenodd" d="M220.498 130.5H175.043V110.5H220.498V130.5Z" fill="#FDCE86"/>
</svg>
